<svg width="16" height="25" viewBox="0 0 16 25" fill="none" xmlns="http://www.w3.org/2000/svg">
<path d="M8.99894 10.4067C9.27248 10.0167 9.51345 9.59962 9.80074 9.21819C10.4824 8.31416 11.7524 6.94456 12.9985 7.018C13.3987 7.04153 13.7765 7.28037 13.8944 7.6675C14.2714 8.90021 12.6577 10.3817 11.7597 11.0412C11.3588 11.3357 10.9209 11.5767 10.5179 11.8675C10.8457 11.8198 11.1619 11.7228 11.4883 11.6651C12.5484 11.4783 13.8401 11.3728 14.8692 11.7342C16.31 12.2404 16.4171 13.4817 14.9415 14.0335C13.5246 14.5632 11.9485 14.2153 10.5186 13.9358C10.8775 14.1854 11.2596 14.4 11.6156 14.6552C12.5274 15.3069 13.8582 16.4889 13.9516 17.6653C13.9964 18.2243 13.6527 18.7248 13.0695 18.7833C11.7676 18.9144 10.4173 17.4179 9.72982 16.4775C9.47293 16.1261 9.25511 15.7489 8.99966 15.3967C9.30359 16.7492 9.64081 18.3683 9.17117 19.7194C8.68343 21.1232 7.44816 21.2643 6.87286 19.8263C6.33157 18.4738 6.70135 16.7328 7.00891 15.361L6.49584 16.1567C5.86844 17.0664 4.8546 18.2735 3.78071 18.6506C2.24658 19.1889 1.66694 18.0311 2.33559 16.7634C3.00496 15.4937 4.36035 14.673 5.52543 13.9002C4.11793 14.2374 2.30881 14.5761 0.930985 13.9886C-0.390396 13.4254 -0.257968 12.2661 1.0294 11.7692C2.40795 11.238 4.09188 11.5731 5.48924 11.8675L4.28365 11.0769C3.35448 10.448 1.58878 8.76689 2.16481 7.5406C2.44052 6.95383 3.12653 6.94599 3.67868 7.10997C4.72435 7.41939 5.74035 8.57581 6.35111 9.43208L7.00891 10.4416C6.68905 9.01072 6.25197 6.95312 7.05232 5.61846C7.43007 4.9882 8.09655 4.68733 8.69283 5.27196C9.8087 6.36564 9.33905 9.04637 8.99966 10.4067H8.99894Z" fill="#0565B4"/>
</svg>
