<svg width="16" height="25" viewBox="0 0 16 25" fill="none" xmlns="http://www.w3.org/2000/svg">
<path d="M8.99894 9.86592C9.27248 9.47593 9.51345 9.05885 9.80074 8.67742C10.4824 7.77339 11.7524 6.40379 12.9985 6.47723C13.3987 6.50075 13.7765 6.7396 13.8944 7.12673C14.2714 8.35944 12.6577 9.84097 11.7597 10.5005C11.3588 10.7949 10.9209 11.0359 10.5179 11.3268C10.8457 11.279 11.1619 11.182 11.4883 11.1243C12.5484 10.9375 13.8401 10.832 14.8692 11.1935C16.31 11.6997 16.4171 12.9409 14.9415 13.4927C13.5246 14.0225 11.9485 13.6746 10.5186 13.3951C10.8775 13.6446 11.2596 13.8592 11.6156 14.1144C12.5274 14.7661 13.8582 15.9482 13.9516 17.1246C13.9964 17.6835 13.6527 18.184 13.0695 18.2425C11.7676 18.3737 10.4173 16.8772 9.72982 15.9368C9.47293 15.5853 9.25511 15.2081 8.99966 14.8559C9.30359 16.2084 9.64081 17.8275 9.17117 19.1786C8.68343 20.5824 7.44816 20.7236 6.87286 19.2855C6.33157 17.9331 6.70135 16.192 7.00891 14.8203L6.49584 15.6159C5.86844 16.5257 4.8546 17.7327 3.78071 18.1099C2.24658 18.6482 1.66694 17.4903 2.33559 16.2227C3.00496 14.9529 4.36035 14.1323 5.52543 13.3594C4.11793 13.6967 2.30881 14.0353 0.930985 13.4478C-0.390396 12.8846 -0.257968 11.7253 1.0294 11.2284C2.40795 10.6972 4.09188 11.0323 5.48924 11.3268L4.28365 10.5361C3.35448 9.90727 1.58878 8.22612 2.16481 6.99983C2.44052 6.41306 3.12653 6.40522 3.67868 6.5692C4.72435 6.87862 5.74035 8.03504 6.35111 8.89131L7.00891 9.90086C6.68905 8.46995 6.25197 6.41235 7.05232 5.07769C7.43007 4.44743 8.09655 4.14656 8.69283 4.73119C9.8087 5.82487 9.33905 8.5056 8.99966 9.86592H8.99894Z" fill="#FF5C02"/>
</svg>
