<svg width="16" height="25" viewBox="0 0 16 25" fill="none" xmlns="http://www.w3.org/2000/svg">
<path d="M8.99894 9.80684C9.27248 9.41685 9.51345 8.99977 9.80074 8.61834C10.4824 7.7143 11.7524 6.34471 12.9985 6.41814C13.3987 6.44167 13.7765 6.68051 13.8944 7.06765C14.2714 8.30036 12.6577 9.78189 11.7597 10.4414C11.3588 10.7358 10.9209 10.9768 10.5179 11.2677C10.8457 11.2199 11.1619 11.123 11.4883 11.0652C12.5484 10.8784 13.8401 10.7729 14.8692 11.1344C16.31 11.6406 16.4171 12.8818 14.9415 13.4337C13.5246 13.9634 11.9485 13.6155 10.5186 13.336C10.8775 13.5855 11.2596 13.8001 11.6156 14.0554C12.5274 14.707 13.8582 15.8891 13.9516 17.0655C13.9964 17.6244 13.6527 18.1249 13.0695 18.1834C11.7676 18.3146 10.4173 16.8181 9.72982 15.8777C9.47293 15.5262 9.25511 15.149 8.99966 14.7968C9.30359 16.1493 9.64081 17.7685 9.17117 19.1195C8.68343 20.5233 7.44816 20.6645 6.87286 19.2265C6.33157 17.874 6.70135 16.1329 7.00891 14.7612L6.49584 15.5569C5.86844 16.4666 4.8546 17.6736 3.78071 18.0508C2.24658 18.5891 1.66694 17.4312 2.33559 16.1636C3.00496 14.8938 4.36035 14.0732 5.52543 13.3003C4.11793 13.6376 2.30881 13.9762 0.930985 13.3887C-0.390396 12.8255 -0.257968 11.6662 1.0294 11.1693C2.40795 10.6381 4.09188 10.9732 5.48924 11.2677L4.28365 10.477C3.35448 9.84819 1.58878 8.16703 2.16481 6.94074C2.44052 6.35398 3.12653 6.34614 3.67868 6.51012C4.72435 6.81954 5.74035 7.97596 6.35111 8.83222L7.00891 9.84177C6.68905 8.41087 6.25197 6.35326 7.05232 5.01861C7.43007 4.38835 8.09655 4.08748 8.69283 4.67211C9.8087 5.76579 9.33905 8.44651 8.99966 9.80684H8.99894Z" fill="#FD0944"/>
</svg>
