<svg width="1022" height="133" viewBox="0 0 1022 133" fill="none" xmlns="http://www.w3.org/2000/svg">
<rect y="0.958496" width="132" height="132" rx="66" fill="white"/>
<path d="M39.38 56.7505L39.562 56.3445C40.3927 56.3538 41.0693 56.4798 41.592 56.7225C42.124 56.9652 42.5113 57.2918 42.754 57.7025C43.006 58.1132 43.132 58.5752 43.132 59.0885C43.132 59.6485 42.9967 60.1432 42.726 60.5725C42.4647 61.0018 42.0773 61.3425 41.564 61.5945C41.0507 61.8372 40.4113 61.9585 39.646 61.9585H32.646L33.472 56.5685L32.646 51.4585H39.394C40.3647 51.4585 41.1113 51.6872 41.634 52.1445C42.166 52.5925 42.432 53.2132 42.432 54.0065C42.432 54.4265 42.3293 54.8372 42.124 55.2385C41.928 55.6305 41.606 55.9665 41.158 56.2465C40.7193 56.5172 40.1267 56.6852 39.38 56.7505ZM34.508 61.4405L33.794 60.4745H39.436C40.0147 60.4745 40.4627 60.3438 40.78 60.0825C41.1067 59.8118 41.27 59.4292 41.27 58.9345C41.27 58.4118 41.0787 58.0058 40.696 57.7165C40.3227 57.4272 39.7673 57.2825 39.03 57.2825H34.48V55.8545H38.848C39.3427 55.8545 39.7533 55.7192 40.08 55.4485C40.4067 55.1685 40.57 54.7718 40.57 54.2585C40.57 53.8758 40.4347 53.5632 40.164 53.3205C39.8933 53.0685 39.5013 52.9425 38.988 52.9425H33.794L34.508 51.9765L35.25 56.5685L34.508 61.4405ZM44.6535 51.1785H46.4735V61.9585H44.6535V51.1785ZM51.7176 62.1545C50.9896 62.1545 50.3689 62.0052 49.8556 61.7065C49.3516 61.4078 48.9643 60.9785 48.6936 60.4185C48.4229 59.8585 48.2876 59.1912 48.2876 58.4165V54.0345H50.1076V58.1365C50.1076 58.9578 50.2943 59.5832 50.6676 60.0125C51.0503 60.4325 51.5963 60.6425 52.3056 60.6425C52.8189 60.6425 53.2576 60.5305 53.6216 60.3065C53.9949 60.0825 54.2843 59.7652 54.4896 59.3545C54.6949 58.9345 54.7976 58.4492 54.7976 57.8985L55.4276 58.2485C55.3529 59.0605 55.1476 59.7605 54.8116 60.3485C54.4756 60.9272 54.0416 61.3752 53.5096 61.6925C52.9776 62.0005 52.3803 62.1545 51.7176 62.1545ZM55.2596 61.9585L54.7976 59.1025V54.0345H56.6176V59.3825L57.0796 61.9585H55.2596ZM62.9795 62.1545C62.0555 62.1545 61.2342 61.9818 60.5155 61.6365C59.7968 61.2818 59.2322 60.7918 58.8215 60.1665C58.4108 59.5412 58.2055 58.8132 58.2055 57.9825C58.2055 57.1612 58.3968 56.4425 58.7795 55.8265C59.1715 55.2012 59.7082 54.7158 60.3895 54.3705C61.0802 54.0158 61.8688 53.8385 62.7555 53.8385C63.6422 53.8385 64.4075 54.0392 65.0515 54.4405C65.7048 54.8325 66.2088 55.3878 66.5635 56.1065C66.9182 56.8252 67.0955 57.6698 67.0955 58.6405H59.6335V57.2545H66.1855L65.2755 57.7725C65.2475 57.2498 65.1215 56.8018 64.8975 56.4285C64.6828 56.0552 64.3888 55.7705 64.0155 55.5745C63.6515 55.3692 63.2175 55.2665 62.7135 55.2665C62.1815 55.2665 61.7148 55.3738 61.3135 55.5885C60.9215 55.8032 60.6135 56.1065 60.3895 56.4985C60.1655 56.8812 60.0535 57.3385 60.0535 57.8705C60.0535 58.4585 60.1842 58.9672 60.4455 59.3965C60.7162 59.8258 61.0942 60.1572 61.5795 60.3905C62.0742 60.6145 62.6575 60.7265 63.3295 60.7265C63.9362 60.7265 64.5568 60.6332 65.1915 60.4465C65.8262 60.2505 66.3862 59.9798 66.8715 59.6345V60.9505C66.3862 61.3238 65.7935 61.6178 65.0935 61.8325C64.4028 62.0472 63.6982 62.1545 62.9795 62.1545ZM80.502 59.5505C80.502 60.0825 80.3527 60.5445 80.054 60.9365C79.7554 61.3285 79.3027 61.6318 78.696 61.8465C78.0894 62.0518 77.3287 62.1545 76.414 62.1545C75.4714 62.1545 74.6547 62.0378 73.964 61.8045C73.2734 61.5618 72.7367 61.2258 72.354 60.7965C71.9807 60.3578 71.78 59.8538 71.752 59.2845H73.6C73.656 59.5832 73.8054 59.8492 74.048 60.0825C74.3 60.3065 74.6267 60.4792 75.028 60.6005C75.4387 60.7218 75.9054 60.7825 76.428 60.7825C77.184 60.7825 77.7534 60.6938 78.136 60.5165C78.5187 60.3298 78.71 60.0498 78.71 59.6765C78.71 59.4245 78.5794 59.2332 78.318 59.1025C78.066 58.9718 77.5854 58.8738 76.876 58.8085L75.322 58.6685C74.482 58.5938 73.8194 58.4445 73.334 58.2205C72.8487 57.9872 72.5034 57.7072 72.298 57.3805C72.0927 57.0445 71.99 56.6898 71.99 56.3165C71.99 55.7752 72.158 55.3225 72.494 54.9585C72.83 54.5945 73.2967 54.3192 73.894 54.1325C74.4914 53.9365 75.1867 53.8385 75.98 53.8385C76.8014 53.8385 77.534 53.9552 78.178 54.1885C78.822 54.4125 79.3354 54.7298 79.718 55.1405C80.1007 55.5418 80.3154 56.0085 80.362 56.5405H78.514C78.4767 56.3258 78.3647 56.1205 78.178 55.9245C78.0007 55.7192 77.7254 55.5512 77.352 55.4205C76.988 55.2805 76.498 55.2105 75.882 55.2105C75.2287 55.2105 74.7154 55.2945 74.342 55.4625C73.978 55.6305 73.796 55.8778 73.796 56.2045C73.796 56.4098 73.908 56.5872 74.132 56.7365C74.356 56.8765 74.7714 56.9745 75.378 57.0305L77.38 57.2125C78.1827 57.2872 78.808 57.4318 79.256 57.6465C79.7134 57.8518 80.0354 58.1178 80.222 58.4445C80.4087 58.7712 80.502 59.1398 80.502 59.5505ZM83.7977 60.3765L83.2657 60.1805L88.3057 54.0345H90.4057L83.6717 61.9585H81.9777V51.1785H83.7977V60.3765ZM86.0517 58.0385L87.3257 56.8905L90.6437 61.9585H88.5017L86.0517 58.0385ZM93.4657 64.4645C92.999 64.4645 92.5744 64.4038 92.1917 64.2825C91.8184 64.1705 91.4684 64.0118 91.1417 63.8065V62.4205C91.4964 62.6445 91.8324 62.8078 92.1497 62.9105C92.4764 63.0132 92.8404 63.0645 93.2417 63.0645C93.6244 63.0645 93.965 62.9758 94.2637 62.7985C94.5624 62.6305 94.8097 62.3318 95.0057 61.9025L98.5757 54.0345H100.508L96.4057 62.5185C96.1817 62.9852 95.9157 63.3585 95.6077 63.6385C95.309 63.9278 94.9777 64.1378 94.6137 64.2685C94.259 64.3992 93.8764 64.4645 93.4657 64.4645ZM94.3757 61.7065L90.7357 54.0345H92.7377L96.1817 61.7065H94.3757ZM32.6354 75.4345V74.6085L34.3294 74.1745L35.0854 71.9625H36.1494V74.0345H39.8314V75.4345H36.1494V78.8645C36.1494 79.5272 36.2894 79.9938 36.5694 80.2645C36.8588 80.5258 37.3254 80.6565 37.9694 80.6565C38.3801 80.6565 38.7441 80.6145 39.0614 80.5305C39.3788 80.4372 39.6821 80.3065 39.9714 80.1385V81.6365C39.7288 81.7578 39.3834 81.8745 38.9354 81.9865C38.4968 82.0985 38.0441 82.1545 37.5774 82.1545C36.8028 82.1545 36.1774 82.0285 35.7014 81.7765C35.2254 81.5152 34.8754 81.1605 34.6514 80.7125C34.4368 80.2552 34.3294 79.7325 34.3294 79.1445V75.4345H32.6354ZM41.2971 71.1785H43.1171V81.9585H41.2971V71.1785ZM46.2671 73.8385C47.0137 73.8385 47.6484 73.9878 48.1711 74.2865C48.6937 74.5852 49.0904 75.0145 49.3611 75.5745C49.6411 76.1252 49.7811 76.7925 49.7811 77.5765V81.9585H47.9611V77.8705C47.9611 77.0398 47.7651 76.4145 47.3731 75.9945C46.9904 75.5652 46.4257 75.3505 45.6791 75.3505C45.1657 75.3505 44.7131 75.4672 44.3211 75.7005C43.9384 75.9245 43.6397 76.2418 43.4251 76.6525C43.2197 77.0632 43.1171 77.5438 43.1171 78.0945L42.4731 77.7445C42.5571 76.9232 42.7717 76.2232 43.1171 75.6445C43.4624 75.0658 43.9057 74.6225 44.4471 74.3145C44.9884 73.9972 45.5951 73.8385 46.2671 73.8385ZM51.6056 73.9785L52.5156 74.1465L53.4256 73.9785V81.9585H51.6056V73.9785ZM52.5156 72.9845C52.1703 72.9845 51.8856 72.8912 51.6616 72.7045C51.4376 72.5085 51.3256 72.2565 51.3256 71.9485C51.3256 71.6405 51.4376 71.3932 51.6616 71.2065C51.8856 71.0105 52.1703 70.9125 52.5156 70.9125C52.8703 70.9125 53.155 71.0105 53.3696 71.2065C53.5936 71.3932 53.7056 71.6405 53.7056 71.9485C53.7056 72.2565 53.5936 72.5085 53.3696 72.7045C53.155 72.8912 52.8703 72.9845 52.5156 72.9845ZM54.9737 74.0345H56.7937L57.2697 76.8905V81.9585H55.4497V76.6245L54.9737 74.0345ZM60.4197 73.8385C61.1664 73.8385 61.8011 73.9878 62.3237 74.2865C62.8464 74.5852 63.2431 75.0145 63.5137 75.5745C63.7937 76.1252 63.9337 76.7925 63.9337 77.5765V81.9585H62.1137V77.8705C62.1137 77.0398 61.9177 76.4145 61.5257 75.9945C61.1431 75.5652 60.5784 75.3505 59.8317 75.3505C59.3184 75.3505 58.8657 75.4672 58.4737 75.7005C58.0911 75.9245 57.7924 76.2418 57.5777 76.6525C57.3724 77.0632 57.2697 77.5438 57.2697 78.0945L56.6257 77.7445C56.7097 76.9232 56.9244 76.2232 57.2697 75.6445C57.6151 75.0658 58.0584 74.6225 58.5997 74.3145C59.1411 73.9972 59.7477 73.8385 60.4197 73.8385ZM67.576 80.3765L67.044 80.1805L72.084 74.0345H74.184L67.45 81.9585H65.756V71.1785H67.576V80.3765ZM69.83 78.0385L71.104 76.8905L74.422 81.9585H72.28L69.83 78.0385ZM75.34 73.9785L76.25 74.1465L77.16 73.9785V81.9585H75.34V73.9785ZM76.25 72.9845C75.9047 72.9845 75.62 72.8912 75.396 72.7045C75.172 72.5085 75.06 72.2565 75.06 71.9485C75.06 71.6405 75.172 71.3932 75.396 71.2065C75.62 71.0105 75.9047 70.9125 76.25 70.9125C76.6047 70.9125 76.8894 71.0105 77.104 71.2065C77.328 71.3932 77.44 71.6405 77.44 71.9485C77.44 72.2565 77.328 72.5085 77.104 72.7045C76.8894 72.8912 76.6047 72.9845 76.25 72.9845ZM78.7081 74.0345H80.5281L81.0041 76.8905V81.9585H79.1841V76.6245L78.7081 74.0345ZM84.1541 73.8385C84.9008 73.8385 85.5355 73.9878 86.0581 74.2865C86.5808 74.5852 86.9775 75.0145 87.2481 75.5745C87.5281 76.1252 87.6681 76.7925 87.6681 77.5765V81.9585H85.8481V77.8705C85.8481 77.0398 85.6521 76.4145 85.2601 75.9945C84.8775 75.5652 84.3128 75.3505 83.5661 75.3505C83.0528 75.3505 82.6001 75.4672 82.2081 75.7005C81.8255 75.9245 81.5268 76.2418 81.3121 76.6525C81.1068 77.0632 81.0041 77.5438 81.0041 78.0945L80.3601 77.7445C80.4441 76.9232 80.6588 76.2232 81.0041 75.6445C81.3495 75.0658 81.7928 74.6225 82.3341 74.3145C82.8755 73.9972 83.4821 73.8385 84.1541 73.8385ZM96.6864 80.0125V78.6125L96.7564 78.3605V76.8345L96.6864 76.5545V74.0345H98.5064V79.8445C98.5064 80.8618 98.2917 81.7112 97.8624 82.3925C97.4331 83.0832 96.8451 83.6012 96.0984 83.9465C95.3517 84.2918 94.4931 84.4645 93.5224 84.4645C92.8131 84.4645 92.1597 84.3712 91.5624 84.1845C90.9651 83.9978 90.3864 83.7132 89.8264 83.3305V81.8185C90.3957 82.2665 90.9837 82.5792 91.5904 82.7565C92.1971 82.9432 92.8037 83.0365 93.4104 83.0365C94.4744 83.0365 95.2864 82.7752 95.8464 82.2525C96.4064 81.7298 96.6864 80.9832 96.6864 80.0125ZM92.8784 81.3425C92.1504 81.3425 91.4971 81.1885 90.9184 80.8805C90.3397 80.5632 89.8824 80.1245 89.5464 79.5645C89.2104 79.0045 89.0424 78.3465 89.0424 77.5905C89.0424 76.8345 89.2104 76.1765 89.5464 75.6165C89.8824 75.0565 90.3397 74.6225 90.9184 74.3145C91.4971 73.9972 92.1504 73.8385 92.8784 73.8385C93.4197 73.8385 93.9191 73.9225 94.3764 74.0905C94.8431 74.2585 95.2584 74.4825 95.6224 74.7625C95.9957 75.0332 96.3084 75.3365 96.5604 75.6725C96.8217 75.9992 97.0224 76.3352 97.1624 76.6805C97.3024 77.0165 97.3724 77.3245 97.3724 77.6045C97.3724 77.9685 97.2651 78.3698 97.0504 78.8085C96.8357 79.2378 96.5277 79.6438 96.1264 80.0265C95.7344 80.4092 95.2631 80.7265 94.7124 80.9785C94.1617 81.2212 93.5504 81.3425 92.8784 81.3425ZM93.4384 79.9985C94.1011 79.9985 94.7077 79.8072 95.2584 79.4245C95.8184 79.0418 96.3177 78.4305 96.7564 77.5905C96.3177 76.7318 95.8184 76.1158 95.2584 75.7425C94.7077 75.3598 94.1011 75.1685 93.4384 75.1685C92.8971 75.1685 92.4351 75.2712 92.0524 75.4765C91.6697 75.6818 91.3757 75.9665 91.1704 76.3305C90.9744 76.6945 90.8764 77.1145 90.8764 77.5905C90.8764 78.0572 90.9744 78.4725 91.1704 78.8365C91.3757 79.2005 91.6697 79.4852 92.0524 79.6905C92.4351 79.8958 92.8971 79.9985 93.4384 79.9985Z" fill="#0565B4"/>
<path d="M149.092 66.6545H156.196L159.46 66.8945V68.1905L156.196 68.4465H149.092V66.6545ZM156.26 62.6385L161.012 67.5505L156.26 72.4625L155.076 71.3265L159.492 66.8465V68.2545L155.076 63.7745L156.26 62.6385Z" fill="black"/>
<rect x="178" y="0.958496" width="132" height="132" rx="66" fill="white"/>
<path d="M226.213 47.3945C226.204 48.0478 226.078 48.6638 225.835 49.2425C225.593 49.8118 225.247 50.3158 224.799 50.7545C224.351 51.1932 223.805 51.5385 223.161 51.7905C222.527 52.0332 221.799 52.1545 220.977 52.1545C220.147 52.1545 219.377 52.0285 218.667 51.7765C217.958 51.5245 217.337 51.1652 216.805 50.6985C216.283 50.2225 215.877 49.6485 215.587 48.9765C215.298 48.3045 215.153 47.5485 215.153 46.7085C215.153 45.8685 215.298 45.1125 215.587 44.4405C215.886 43.7685 216.301 43.1992 216.833 42.7325C217.365 42.2565 217.991 41.8925 218.709 41.6405C219.428 41.3885 220.217 41.2625 221.075 41.2625C222.149 41.2625 223.087 41.4398 223.889 41.7945C224.701 42.1398 225.355 42.6158 225.849 43.2225C226.344 43.8292 226.647 44.5245 226.759 45.3085H224.883C224.781 44.8138 224.557 44.3845 224.211 44.0205C223.875 43.6565 223.441 43.3765 222.909 43.1805C222.377 42.9845 221.761 42.8865 221.061 42.8865C220.24 42.8865 219.526 43.0405 218.919 43.3485C218.322 43.6472 217.855 44.0812 217.519 44.6505C217.193 45.2198 217.029 45.9058 217.029 46.7085C217.029 47.5112 217.197 48.2018 217.533 48.7805C217.879 49.3592 218.364 49.8025 218.989 50.1105C219.615 50.4185 220.352 50.5725 221.201 50.5725C222.023 50.5725 222.741 50.4325 223.357 50.1525C223.973 49.8725 224.459 49.4852 224.813 48.9905C225.168 48.4865 225.359 47.9032 225.387 47.2405L226.213 47.3945ZM221.565 48.1925V46.7925H226.871V51.9585H225.499L225.275 47.6045L225.709 48.1925H221.565ZM236.129 51.9585L235.821 49.0185L236.185 47.9965L235.821 46.9885L236.129 44.0345H238.005L237.585 47.9965L238.005 51.9585H236.129ZM236.689 47.9965C236.512 48.8272 236.218 49.5552 235.807 50.1805C235.397 50.8058 234.888 51.2912 234.281 51.6365C233.684 51.9818 233.017 52.1545 232.279 52.1545C231.505 52.1545 230.819 51.9818 230.221 51.6365C229.624 51.2818 229.157 50.7918 228.821 50.1665C228.485 49.5412 228.317 48.8178 228.317 47.9965C228.317 47.1658 228.485 46.4425 228.821 45.8265C229.157 45.2012 229.624 44.7158 230.221 44.3705C230.819 44.0158 231.505 43.8385 232.279 43.8385C233.017 43.8385 233.684 44.0112 234.281 44.3565C234.888 44.7018 235.397 45.1872 235.807 45.8125C236.227 46.4285 236.521 47.1565 236.689 47.9965ZM230.165 47.9965C230.165 48.5285 230.273 48.9998 230.487 49.4105C230.711 49.8118 231.015 50.1292 231.397 50.3625C231.78 50.5865 232.219 50.6985 232.713 50.6985C233.217 50.6985 233.684 50.5865 234.113 50.3625C234.543 50.1292 234.921 49.8118 235.247 49.4105C235.583 48.9998 235.849 48.5285 236.045 47.9965C235.849 47.4645 235.583 46.9978 235.247 46.5965C234.921 46.1858 234.543 45.8685 234.113 45.6445C233.684 45.4112 233.217 45.2945 232.713 45.2945C232.219 45.2945 231.78 45.4112 231.397 45.6445C231.015 45.8685 230.711 46.1858 230.487 46.5965C230.273 46.9978 230.165 47.4645 230.165 47.9965ZM238.861 45.4345V44.6085L240.555 44.1745L241.311 41.9625H242.375V44.0345H246.057V45.4345H242.375V48.8645C242.375 49.5272 242.515 49.9938 242.795 50.2645C243.084 50.5258 243.551 50.6565 244.195 50.6565C244.606 50.6565 244.97 50.6145 245.287 50.5305C245.604 50.4372 245.908 50.3065 246.197 50.1385V51.6365C245.954 51.7578 245.609 51.8745 245.161 51.9865C244.722 52.0985 244.27 52.1545 243.803 52.1545C243.028 52.1545 242.403 52.0285 241.927 51.7765C241.451 51.5152 241.101 51.1605 240.877 50.7125C240.662 50.2552 240.555 49.7325 240.555 49.1445V45.4345H238.861ZM247.523 41.1785H249.343V51.9585H247.523V41.1785ZM252.493 43.8385C253.239 43.8385 253.874 43.9878 254.397 44.2865C254.919 44.5852 255.316 45.0145 255.587 45.5745C255.867 46.1252 256.007 46.7925 256.007 47.5765V51.9585H254.187V47.8705C254.187 47.0398 253.991 46.4145 253.599 45.9945C253.216 45.5652 252.651 45.3505 251.905 45.3505C251.391 45.3505 250.939 45.4672 250.547 45.7005C250.164 45.9245 249.865 46.2418 249.651 46.6525C249.445 47.0632 249.343 47.5438 249.343 48.0945L248.699 47.7445C248.783 46.9232 248.997 46.2232 249.343 45.6445C249.688 45.0658 250.131 44.6225 250.673 44.3145C251.214 43.9972 251.821 43.8385 252.493 43.8385ZM262.157 52.1545C261.233 52.1545 260.412 51.9818 259.693 51.6365C258.975 51.2818 258.41 50.7918 257.999 50.1665C257.589 49.5412 257.383 48.8132 257.383 47.9825C257.383 47.1612 257.575 46.4425 257.957 45.8265C258.349 45.2012 258.886 44.7158 259.567 44.3705C260.258 44.0158 261.047 43.8385 261.933 43.8385C262.82 43.8385 263.585 44.0392 264.229 44.4405C264.883 44.8325 265.387 45.3878 265.741 46.1065C266.096 46.8252 266.273 47.6698 266.273 48.6405H258.811V47.2545H265.363L264.453 47.7725C264.425 47.2498 264.299 46.8018 264.075 46.4285C263.861 46.0552 263.567 45.7705 263.193 45.5745C262.829 45.3692 262.395 45.2665 261.891 45.2665C261.359 45.2665 260.893 45.3738 260.491 45.5885C260.099 45.8032 259.791 46.1065 259.567 46.4985C259.343 46.8812 259.231 47.3385 259.231 47.8705C259.231 48.4585 259.362 48.9672 259.623 49.3965C259.894 49.8258 260.272 50.1572 260.757 50.3905C261.252 50.6145 261.835 50.7265 262.507 50.7265C263.114 50.7265 263.735 50.6332 264.369 50.4465C265.004 50.2505 265.564 49.9798 266.049 49.6345V50.9505C265.564 51.3238 264.971 51.6178 264.271 51.8325C263.581 52.0472 262.876 52.1545 262.157 52.1545ZM267.393 44.0345H269.213L269.689 46.9185V51.9585H267.869V46.5685L267.393 44.0345ZM273.707 43.9785V45.5745C273.501 45.5185 273.277 45.4765 273.035 45.4485C272.792 45.4205 272.563 45.4065 272.349 45.4065C271.835 45.4065 271.378 45.5185 270.977 45.7425C270.575 45.9665 270.258 46.3025 270.025 46.7505C269.801 47.1892 269.689 47.7305 269.689 48.3745L269.269 47.8565C269.306 47.2965 269.399 46.7738 269.549 46.2885C269.707 45.7938 269.922 45.3645 270.193 45.0005C270.473 44.6365 270.813 44.3518 271.215 44.1465C271.616 43.9412 272.083 43.8385 272.615 43.8385C272.801 43.8385 272.993 43.8525 273.189 43.8805C273.385 43.8992 273.557 43.9318 273.707 43.9785ZM221.758 65.4345V64.6085L223.452 64.1745L224.208 61.9625H225.272V64.0345H228.954V65.4345H225.272V68.8645C225.272 69.5272 225.412 69.9938 225.692 70.2645C225.981 70.5258 226.448 70.6565 227.092 70.6565C227.502 70.6565 227.866 70.6145 228.184 70.5305C228.501 70.4372 228.804 70.3065 229.094 70.1385V71.6365C228.851 71.7578 228.506 71.8745 228.058 71.9865C227.619 72.0985 227.166 72.1545 226.7 72.1545C225.925 72.1545 225.3 72.0285 224.824 71.7765C224.348 71.5152 223.998 71.1605 223.774 70.7125C223.559 70.2552 223.452 69.7325 223.452 69.1445V65.4345H221.758ZM234.472 72.1545C233.548 72.1545 232.726 71.9818 232.008 71.6365C231.289 71.2818 230.724 70.7918 230.314 70.1665C229.903 69.5412 229.698 68.8132 229.698 67.9825C229.698 67.1612 229.889 66.4425 230.272 65.8265C230.664 65.2012 231.2 64.7158 231.882 64.3705C232.572 64.0158 233.361 63.8385 234.248 63.8385C235.134 63.8385 235.9 64.0392 236.544 64.4405C237.197 64.8325 237.701 65.3878 238.056 66.1065C238.41 66.8252 238.588 67.6698 238.588 68.6405H231.126V67.2545H237.678L236.768 67.7725C236.74 67.2498 236.614 66.8018 236.39 66.4285C236.175 66.0552 235.881 65.7705 235.508 65.5745C235.144 65.3692 234.71 65.2665 234.206 65.2665C233.674 65.2665 233.207 65.3738 232.806 65.5885C232.414 65.8032 232.106 66.1065 231.882 66.4985C231.658 66.8812 231.546 67.3385 231.546 67.8705C231.546 68.4585 231.676 68.9672 231.938 69.3965C232.208 69.8258 232.586 70.1572 233.072 70.3905C233.566 70.6145 234.15 70.7265 234.822 70.7265C235.428 70.7265 236.049 70.6332 236.684 70.4465C237.318 70.2505 237.878 69.9798 238.364 69.6345V70.9505C237.878 71.3238 237.286 71.6178 236.586 71.8325C235.895 72.0472 235.19 72.1545 234.472 72.1545ZM247.477 71.9585L247.169 69.0185L247.533 67.9965L247.169 66.9885L247.477 64.0345H249.353L248.933 67.9965L249.353 71.9585H247.477ZM248.037 67.9965C247.86 68.8272 247.566 69.5552 247.155 70.1805C246.744 70.8058 246.236 71.2912 245.629 71.6365C245.032 71.9818 244.364 72.1545 243.627 72.1545C242.852 72.1545 242.166 71.9818 241.569 71.6365C240.972 71.2818 240.505 70.7918 240.169 70.1665C239.833 69.5412 239.665 68.8178 239.665 67.9965C239.665 67.1658 239.833 66.4425 240.169 65.8265C240.505 65.2012 240.972 64.7158 241.569 64.3705C242.166 64.0158 242.852 63.8385 243.627 63.8385C244.364 63.8385 245.032 64.0112 245.629 64.3565C246.236 64.7018 246.744 65.1872 247.155 65.8125C247.575 66.4285 247.869 67.1565 248.037 67.9965ZM241.513 67.9965C241.513 68.5285 241.62 68.9998 241.835 69.4105C242.059 69.8118 242.362 70.1292 242.745 70.3625C243.128 70.5865 243.566 70.6985 244.061 70.6985C244.565 70.6985 245.032 70.5865 245.461 70.3625C245.89 70.1292 246.268 69.8118 246.595 69.4105C246.931 68.9998 247.197 68.5285 247.393 67.9965C247.197 67.4645 246.931 66.9978 246.595 66.5965C246.268 66.1858 245.89 65.8685 245.461 65.6445C245.032 65.4112 244.565 65.2945 244.061 65.2945C243.566 65.2945 243.128 65.4112 242.745 65.6445C242.362 65.8685 242.059 66.1858 241.835 66.5965C241.62 66.9978 241.513 67.4645 241.513 67.9965ZM250.727 64.0345H252.547L253.023 66.8905V71.9585H251.203V66.6245L250.727 64.0345ZM255.949 63.8385C256.649 63.8385 257.241 63.9878 257.727 64.2865C258.221 64.5852 258.595 65.0145 258.847 65.5745C259.108 66.1252 259.239 66.7925 259.239 67.5765V71.9585H257.419V67.8705C257.419 67.0398 257.241 66.4145 256.887 65.9945C256.541 65.5652 256.033 65.3505 255.361 65.3505C254.885 65.3505 254.469 65.4672 254.115 65.7005C253.769 65.9245 253.499 66.2418 253.303 66.6525C253.116 67.0632 253.023 67.5438 253.023 68.0945L252.379 67.7445C252.463 66.9232 252.663 66.2232 252.981 65.6445C253.307 65.0658 253.723 64.6225 254.227 64.3145C254.74 63.9972 255.314 63.8385 255.949 63.8385ZM262.151 63.8385C262.851 63.8385 263.448 63.9878 263.943 64.2865C264.437 64.5852 264.811 65.0145 265.063 65.5745C265.324 66.1252 265.455 66.7925 265.455 67.5765V71.9585H263.635V67.8705C263.635 67.0398 263.457 66.4145 263.103 65.9945C262.757 65.5652 262.249 65.3505 261.577 65.3505C261.101 65.3505 260.685 65.4672 260.331 65.7005C259.985 65.9245 259.715 66.2418 259.519 66.6525C259.332 67.0632 259.239 67.5438 259.239 68.0945L258.595 67.7445C258.679 66.9232 258.879 66.2232 259.197 65.6445C259.523 65.0658 259.939 64.6225 260.443 64.3145C260.956 63.9972 261.525 63.8385 262.151 63.8385ZM209.88 82.3965C209.199 82.3965 208.69 82.5412 208.354 82.8305C208.028 83.1198 207.864 83.5912 207.864 84.2445V91.9585H206.044V84.4125C206.044 83.7312 206.17 83.1338 206.422 82.6205C206.684 82.1072 207.08 81.7058 207.612 81.4165C208.154 81.1272 208.84 80.9825 209.67 80.9825C210.072 80.9825 210.426 81.0152 210.734 81.0805C211.042 81.1458 211.346 81.2298 211.644 81.3325V82.7605C211.374 82.6298 211.094 82.5365 210.804 82.4805C210.515 82.4245 210.207 82.3965 209.88 82.3965ZM204.35 85.9805V84.5805H211.49V85.9805H204.35ZM216.555 92.1545C215.631 92.1545 214.809 91.9818 214.091 91.6365C213.372 91.2818 212.807 90.7918 212.397 90.1665C211.986 89.5412 211.781 88.8132 211.781 87.9825C211.781 87.1612 211.972 86.4425 212.355 85.8265C212.747 85.2012 213.283 84.7158 213.965 84.3705C214.655 84.0158 215.444 83.8385 216.331 83.8385C217.217 83.8385 217.983 84.0392 218.627 84.4405C219.28 84.8325 219.784 85.3878 220.139 86.1065C220.493 86.8252 220.671 87.6698 220.671 88.6405H213.209V87.2545H219.761L218.851 87.7725C218.823 87.2498 218.697 86.8018 218.473 86.4285C218.258 86.0552 217.964 85.7705 217.591 85.5745C217.227 85.3692 216.793 85.2665 216.289 85.2665C215.757 85.2665 215.29 85.3738 214.889 85.5885C214.497 85.8032 214.189 86.1065 213.965 86.4985C213.741 86.8812 213.629 87.3385 213.629 87.8705C213.629 88.4585 213.759 88.9672 214.021 89.3965C214.291 89.8258 214.669 90.1572 215.155 90.3905C215.649 90.6145 216.233 90.7265 216.905 90.7265C217.511 90.7265 218.132 90.6332 218.767 90.4465C219.401 90.2505 219.961 89.9798 220.447 89.6345V90.9505C219.961 91.3238 219.369 91.6178 218.669 91.8325C217.978 92.0472 217.273 92.1545 216.555 92.1545ZM226.494 92.1545C225.57 92.1545 224.749 91.9818 224.03 91.6365C223.311 91.2818 222.747 90.7918 222.336 90.1665C221.925 89.5412 221.72 88.8132 221.72 87.9825C221.72 87.1612 221.911 86.4425 222.294 85.8265C222.686 85.2012 223.223 84.7158 223.904 84.3705C224.595 84.0158 225.383 83.8385 226.27 83.8385C227.157 83.8385 227.922 84.0392 228.566 84.4405C229.219 84.8325 229.723 85.3878 230.078 86.1065C230.433 86.8252 230.61 87.6698 230.61 88.6405H223.148V87.2545H229.7L228.79 87.7725C228.762 87.2498 228.636 86.8018 228.412 86.4285C228.197 86.0552 227.903 85.7705 227.53 85.5745C227.166 85.3692 226.732 85.2665 226.228 85.2665C225.696 85.2665 225.229 85.3738 224.828 85.5885C224.436 85.8032 224.128 86.1065 223.904 86.4985C223.68 86.8812 223.568 87.3385 223.568 87.8705C223.568 88.4585 223.699 88.9672 223.96 89.3965C224.231 89.8258 224.609 90.1572 225.094 90.3905C225.589 90.6145 226.172 90.7265 226.844 90.7265C227.451 90.7265 228.071 90.6332 228.706 90.4465C229.341 90.2505 229.901 89.9798 230.386 89.6345V90.9505C229.901 91.3238 229.308 91.6178 228.608 91.8325C227.917 92.0472 227.213 92.1545 226.494 92.1545ZM239.528 91.9585L239.22 88.9485L239.626 88.0105L239.234 86.9325L239.822 81.1785H241.698L240.984 87.8845L241.39 91.9585H239.528ZM240.06 87.9965C239.882 88.8272 239.588 89.5552 239.178 90.1805C238.767 90.8058 238.258 91.2912 237.652 91.6365C237.054 91.9818 236.387 92.1545 235.65 92.1545C234.875 92.1545 234.189 91.9818 233.592 91.6365C232.994 91.2818 232.528 90.7918 232.192 90.1665C231.856 89.5412 231.688 88.8178 231.688 87.9965C231.688 87.1658 231.856 86.4425 232.192 85.8265C232.528 85.2012 232.994 84.7158 233.592 84.3705C234.189 84.0158 234.875 83.8385 235.65 83.8385C236.387 83.8385 237.054 84.0112 237.652 84.3565C238.258 84.7018 238.767 85.1872 239.178 85.8125C239.598 86.4285 239.892 87.1565 240.06 87.9965ZM233.536 87.9965C233.536 88.5285 233.643 88.9998 233.858 89.4105C234.082 89.8118 234.385 90.1292 234.768 90.3625C235.15 90.5865 235.589 90.6985 236.084 90.6985C236.588 90.6985 237.054 90.5865 237.484 90.3625C237.913 90.1292 238.291 89.8118 238.618 89.4105C238.954 88.9998 239.22 88.5285 239.416 87.9965C239.22 87.4645 238.954 86.9978 238.618 86.5965C238.291 86.1858 237.913 85.8685 237.484 85.6445C237.054 85.4112 236.588 85.2945 236.084 85.2945C235.589 85.2945 235.15 85.4112 234.768 85.6445C234.385 85.8685 234.082 86.1858 233.858 86.5965C233.643 86.9978 233.536 87.4645 233.536 87.9965ZM243.141 81.1785H244.961V86.7645L244.681 87.2825V88.7525L244.961 89.3405V91.9585H243.141V81.1785ZM244.233 87.9965C244.41 87.1565 244.704 86.4285 245.115 85.8125C245.525 85.1872 246.029 84.7018 246.627 84.3565C247.233 84.0112 247.905 83.8385 248.643 83.8385C249.417 83.8385 250.103 84.0158 250.701 84.3705C251.298 84.7158 251.765 85.2012 252.101 85.8265C252.437 86.4425 252.605 87.1658 252.605 87.9965C252.605 88.8178 252.437 89.5412 252.101 90.1665C251.765 90.7918 251.298 91.2818 250.701 91.6365C250.103 91.9818 249.417 92.1545 248.643 92.1545C247.905 92.1545 247.233 91.9818 246.627 91.6365C246.029 91.2912 245.525 90.8058 245.115 90.1805C244.704 89.5552 244.41 88.8272 244.233 87.9965ZM250.757 87.9965C250.757 87.4645 250.645 86.9978 250.421 86.5965C250.206 86.1858 249.907 85.8685 249.525 85.6445C249.142 85.4112 248.703 85.2945 248.209 85.2945C247.714 85.2945 247.247 85.4112 246.809 85.6445C246.379 85.8685 246.001 86.1858 245.675 86.5965C245.348 86.9978 245.082 87.4645 244.877 87.9965C245.082 88.5285 245.348 88.9998 245.675 89.4105C246.001 89.8118 246.379 90.1292 246.809 90.3625C247.247 90.5865 247.714 90.6985 248.209 90.6985C248.703 90.6985 249.142 90.5865 249.525 90.3625C249.907 90.1292 250.206 89.8118 250.421 89.4105C250.645 88.9998 250.757 88.5285 250.757 87.9965ZM261.511 91.9585L261.203 89.0185L261.567 87.9965L261.203 86.9885L261.511 84.0345H263.387L262.967 87.9965L263.387 91.9585H261.511ZM262.071 87.9965C261.894 88.8272 261.6 89.5552 261.189 90.1805C260.779 90.8058 260.27 91.2912 259.663 91.6365C259.066 91.9818 258.399 92.1545 257.661 92.1545C256.887 92.1545 256.201 91.9818 255.603 91.6365C255.006 91.2818 254.539 90.7918 254.203 90.1665C253.867 89.5412 253.699 88.8178 253.699 87.9965C253.699 87.1658 253.867 86.4425 254.203 85.8265C254.539 85.2012 255.006 84.7158 255.603 84.3705C256.201 84.0158 256.887 83.8385 257.661 83.8385C258.399 83.8385 259.066 84.0112 259.663 84.3565C260.27 84.7018 260.779 85.1872 261.189 85.8125C261.609 86.4285 261.903 87.1565 262.071 87.9965ZM255.547 87.9965C255.547 88.5285 255.655 88.9998 255.869 89.4105C256.093 89.8118 256.397 90.1292 256.779 90.3625C257.162 90.5865 257.601 90.6985 258.095 90.6985C258.599 90.6985 259.066 90.5865 259.495 90.3625C259.925 90.1292 260.303 89.8118 260.629 89.4105C260.965 88.9998 261.231 88.5285 261.427 87.9965C261.231 87.4645 260.965 86.9978 260.629 86.5965C260.303 86.1858 259.925 85.8685 259.495 85.6445C259.066 85.4112 258.599 85.2945 258.095 85.2945C257.601 85.2945 257.162 85.4112 256.779 85.6445C256.397 85.8685 256.093 86.1858 255.869 86.5965C255.655 86.9978 255.547 87.4645 255.547 87.9965ZM273.889 88.8365C273.796 89.4898 273.539 90.0685 273.119 90.5725C272.699 91.0672 272.162 91.4545 271.509 91.7345C270.856 92.0145 270.128 92.1545 269.325 92.1545C268.41 92.1545 267.603 91.9818 266.903 91.6365C266.212 91.2818 265.671 90.7918 265.279 90.1665C264.887 89.5412 264.691 88.8178 264.691 87.9965C264.691 87.1752 264.887 86.4518 265.279 85.8265C265.671 85.2012 266.212 84.7158 266.903 84.3705C267.603 84.0158 268.41 83.8385 269.325 83.8385C270.128 83.8385 270.856 83.9785 271.509 84.2585C272.162 84.5385 272.699 84.9305 273.119 85.4345C273.539 85.9292 273.796 86.5078 273.889 87.1705H272.055C271.924 86.5732 271.612 86.1065 271.117 85.7705C270.622 85.4345 270.025 85.2665 269.325 85.2665C268.765 85.2665 268.275 85.3785 267.855 85.6025C267.435 85.8172 267.108 86.1298 266.875 86.5405C266.651 86.9418 266.539 87.4272 266.539 87.9965C266.539 88.5565 266.651 89.0418 266.875 89.4525C267.108 89.8632 267.435 90.1805 267.855 90.4045C268.275 90.6192 268.765 90.7265 269.325 90.7265C270.034 90.7265 270.636 90.5538 271.131 90.2085C271.626 89.8632 271.934 89.4058 272.055 88.8365H273.889ZM277.09 90.3765L276.558 90.1805L281.598 84.0345H283.698L276.964 91.9585H275.27V81.1785H277.09V90.3765ZM279.344 88.0385L280.618 86.8905L283.936 91.9585H281.794L279.344 88.0385Z" fill="#1A1A1A"/>
<path d="M327.092 66.6545H334.196L337.46 66.8945V68.1905L334.196 68.4465H327.092V66.6545ZM334.26 62.6385L339.012 67.5505L334.26 72.4625L333.076 71.3265L337.492 66.8465V68.2545L333.076 63.7745L334.26 62.6385Z" fill="black"/>
<rect x="356" y="0.958496" width="132" height="132" rx="66" fill="white"/>
<path d="M386.29 61.4585C387.074 61.4585 387.75 61.5985 388.32 61.8785C388.898 62.1585 389.342 62.5505 389.65 63.0545C389.967 63.5492 390.126 64.1232 390.126 64.7765C390.126 65.4298 389.967 66.0085 389.65 66.5125C389.342 67.0072 388.898 67.3945 388.32 67.6745C387.75 67.9545 387.074 68.0945 386.29 68.0945H381.572V66.4985H386.22C386.854 66.4985 387.349 66.3445 387.704 66.0365C388.068 65.7285 388.25 65.3085 388.25 64.7765C388.25 64.2445 388.068 63.8245 387.704 63.5165C387.349 63.2085 386.854 63.0545 386.22 63.0545H381.754L382.58 62.1305V71.9585H380.732V61.4585H386.29ZM391.054 64.0345H392.874L393.35 66.9185V71.9585H391.53V66.5685L391.054 64.0345ZM397.368 63.9785V65.5745C397.162 65.5185 396.938 65.4765 396.696 65.4485C396.453 65.4205 396.224 65.4065 396.01 65.4065C395.496 65.4065 395.039 65.5185 394.638 65.7425C394.236 65.9665 393.919 66.3025 393.686 66.7505C393.462 67.1892 393.35 67.7305 393.35 68.3745L392.93 67.8565C392.967 67.2965 393.06 66.7738 393.21 66.2885C393.368 65.7938 393.583 65.3645 393.854 65.0005C394.134 64.6365 394.474 64.3518 394.876 64.1465C395.277 63.9412 395.744 63.8385 396.276 63.8385C396.462 63.8385 396.654 63.8525 396.85 63.8805C397.046 63.8992 397.218 63.9318 397.368 63.9785ZM402.581 72.1545C401.62 72.1545 400.775 71.9818 400.047 71.6365C399.329 71.2818 398.764 70.7918 398.353 70.1665C397.952 69.5412 397.751 68.8178 397.751 67.9965C397.751 67.1658 397.952 66.4425 398.353 65.8265C398.764 65.2012 399.329 64.7158 400.047 64.3705C400.775 64.0158 401.62 63.8385 402.581 63.8385C403.543 63.8385 404.383 64.0158 405.101 64.3705C405.829 64.7158 406.394 65.2012 406.795 65.8265C407.206 66.4425 407.411 67.1658 407.411 67.9965C407.411 68.8178 407.206 69.5412 406.795 70.1665C406.394 70.7918 405.829 71.2818 405.101 71.6365C404.383 71.9818 403.543 72.1545 402.581 72.1545ZM402.581 70.7265C403.197 70.7265 403.725 70.6145 404.163 70.3905C404.611 70.1665 404.957 69.8538 405.199 69.4525C405.442 69.0418 405.563 68.5565 405.563 67.9965C405.563 67.4365 405.442 66.9558 405.199 66.5545C404.957 66.1438 404.611 65.8265 404.163 65.6025C403.725 65.3785 403.197 65.2665 402.581 65.2665C401.975 65.2665 401.447 65.3785 400.999 65.6025C400.551 65.8265 400.206 66.1438 399.963 66.5545C399.721 66.9558 399.599 67.4365 399.599 67.9965C399.599 68.5565 399.721 69.0418 399.963 69.4525C400.206 69.8538 400.551 70.1665 400.999 70.3905C401.447 70.6145 401.975 70.7265 402.581 70.7265ZM407.844 65.4345V64.6085L409.538 64.1745L410.294 61.9625H411.358V64.0345H415.04V65.4345H411.358V68.8645C411.358 69.5272 411.498 69.9938 411.778 70.2645C412.068 70.5258 412.534 70.6565 413.178 70.6565C413.589 70.6565 413.953 70.6145 414.27 70.5305C414.588 70.4372 414.891 70.3065 415.18 70.1385V71.6365C414.938 71.7578 414.592 71.8745 414.144 71.9865C413.706 72.0985 413.253 72.1545 412.786 72.1545C412.012 72.1545 411.386 72.0285 410.91 71.7765C410.434 71.5152 410.084 71.1605 409.86 70.7125C409.646 70.2552 409.538 69.7325 409.538 69.1445V65.4345H407.844ZM420.615 72.1545C419.653 72.1545 418.809 71.9818 418.081 71.6365C417.362 71.2818 416.797 70.7918 416.387 70.1665C415.985 69.5412 415.785 68.8178 415.785 67.9965C415.785 67.1658 415.985 66.4425 416.387 65.8265C416.797 65.2012 417.362 64.7158 418.081 64.3705C418.809 64.0158 419.653 63.8385 420.615 63.8385C421.576 63.8385 422.416 64.0158 423.135 64.3705C423.863 64.7158 424.427 65.2012 424.829 65.8265C425.239 66.4425 425.445 67.1658 425.445 67.9965C425.445 68.8178 425.239 69.5412 424.829 70.1665C424.427 70.7918 423.863 71.2818 423.135 71.6365C422.416 71.9818 421.576 72.1545 420.615 72.1545ZM420.615 70.7265C421.231 70.7265 421.758 70.6145 422.197 70.3905C422.645 70.1665 422.99 69.8538 423.233 69.4525C423.475 69.0418 423.597 68.5565 423.597 67.9965C423.597 67.4365 423.475 66.9558 423.233 66.5545C422.99 66.1438 422.645 65.8265 422.197 65.6025C421.758 65.3785 421.231 65.2665 420.615 65.2665C420.008 65.2665 419.481 65.3785 419.033 65.6025C418.585 65.8265 418.239 66.1438 417.997 66.5545C417.754 66.9558 417.633 67.4365 417.633 67.9965C417.633 68.5565 417.754 69.0418 417.997 69.4525C418.239 69.8538 418.585 70.1665 419.033 70.3905C419.481 70.6145 420.008 70.7265 420.615 70.7265ZM425.878 65.4345V64.6085L427.572 64.1745L428.328 61.9625H429.392V64.0345H433.074V65.4345H429.392V68.8645C429.392 69.5272 429.532 69.9938 429.812 70.2645C430.101 70.5258 430.568 70.6565 431.212 70.6565C431.622 70.6565 431.986 70.6145 432.304 70.5305C432.621 70.4372 432.924 70.3065 433.214 70.1385V71.6365C432.971 71.7578 432.626 71.8745 432.178 71.9865C431.739 72.0985 431.286 72.1545 430.82 72.1545C430.045 72.1545 429.42 72.0285 428.944 71.7765C428.468 71.5152 428.118 71.1605 427.894 70.7125C427.679 70.2552 427.572 69.7325 427.572 69.1445V65.4345H425.878ZM436.361 74.4645C435.895 74.4645 435.47 74.4038 435.087 74.2825C434.714 74.1705 434.364 74.0118 434.037 73.8065V72.4205C434.392 72.6445 434.728 72.8078 435.045 72.9105C435.372 73.0132 435.736 73.0645 436.137 73.0645C436.52 73.0645 436.861 72.9758 437.159 72.7985C437.458 72.6305 437.705 72.3318 437.901 71.9025L441.471 64.0345H443.403L439.301 72.5185C439.077 72.9852 438.811 73.3585 438.503 73.6385C438.205 73.9278 437.873 74.1378 437.509 74.2685C437.155 74.3992 436.772 74.4645 436.361 74.4645ZM437.271 71.7065L433.631 64.0345H435.633L439.077 71.7065H437.271ZM444.465 64.0345H446.285V66.7925L446.201 67.0725V68.6685L446.285 69.1585V74.2685H444.465V64.0345ZM445.585 67.9965C445.762 67.1565 446.056 66.4285 446.467 65.8125C446.878 65.1872 447.382 64.7018 447.979 64.3565C448.586 64.0112 449.258 63.8385 449.995 63.8385C450.77 63.8385 451.456 64.0158 452.053 64.3705C452.65 64.7158 453.117 65.2012 453.453 65.8265C453.789 66.4425 453.957 67.1658 453.957 67.9965C453.957 68.8178 453.789 69.5412 453.453 70.1665C453.117 70.7918 452.65 71.2818 452.053 71.6365C451.456 71.9818 450.77 72.1545 449.995 72.1545C449.258 72.1545 448.59 71.9818 447.993 71.6365C447.396 71.2912 446.887 70.8058 446.467 70.1805C446.056 69.5552 445.762 68.8272 445.585 67.9965ZM452.109 67.9965C452.109 67.4645 451.997 66.9978 451.773 66.5965C451.558 66.1858 451.26 65.8685 450.877 65.6445C450.494 65.4112 450.056 65.2945 449.561 65.2945C449.066 65.2945 448.6 65.4112 448.161 65.6445C447.732 65.8685 447.354 66.1858 447.027 66.5965C446.7 66.9978 446.434 67.4645 446.229 67.9965C446.434 68.5285 446.7 68.9998 447.027 69.4105C447.354 69.8118 447.732 70.1292 448.161 70.3625C448.6 70.5865 449.066 70.6985 449.561 70.6985C450.056 70.6985 450.494 70.5865 450.877 70.3625C451.26 70.1292 451.558 69.8118 451.773 69.4105C451.997 68.9998 452.109 68.5285 452.109 67.9965ZM459.797 72.1545C458.873 72.1545 458.052 71.9818 457.333 71.6365C456.614 71.2818 456.05 70.7918 455.639 70.1665C455.228 69.5412 455.023 68.8132 455.023 67.9825C455.023 67.1612 455.214 66.4425 455.597 65.8265C455.989 65.2012 456.526 64.7158 457.207 64.3705C457.898 64.0158 458.686 63.8385 459.573 63.8385C460.46 63.8385 461.225 64.0392 461.869 64.4405C462.522 64.8325 463.026 65.3878 463.381 66.1065C463.736 66.8252 463.913 67.6698 463.913 68.6405H456.451V67.2545H463.003L462.093 67.7725C462.065 67.2498 461.939 66.8018 461.715 66.4285C461.5 66.0552 461.206 65.7705 460.833 65.5745C460.469 65.3692 460.035 65.2665 459.531 65.2665C458.999 65.2665 458.532 65.3738 458.131 65.5885C457.739 65.8032 457.431 66.1065 457.207 66.4985C456.983 66.8812 456.871 67.3385 456.871 67.8705C456.871 68.4585 457.002 68.9672 457.263 69.3965C457.534 69.8258 457.912 70.1572 458.397 70.3905C458.892 70.6145 459.475 70.7265 460.147 70.7265C460.754 70.7265 461.374 70.6332 462.009 70.4465C462.644 70.2505 463.204 69.9798 463.689 69.6345V70.9505C463.204 71.3238 462.611 71.6178 461.911 71.8325C461.22 72.0472 460.516 72.1545 459.797 72.1545Z" fill="#1A1A1A"/>
<path d="M505.092 66.6545H512.196L515.46 66.8945V68.1905L512.196 68.4465H505.092V66.6545ZM512.26 62.6385L517.012 67.5505L512.26 72.4625L511.076 71.3265L515.492 66.8465V68.2545L511.076 63.7745L512.26 62.6385Z" fill="black"/>
<rect x="534" y="0.958496" width="132" height="132" rx="66" fill="white"/>
<path d="M566.811 57.4505C566.811 58.0758 566.937 58.6172 567.189 59.0745C567.441 59.5318 567.8 59.8865 568.267 60.1385C568.743 60.3812 569.307 60.5025 569.961 60.5025C570.623 60.5025 571.188 60.3812 571.655 60.1385C572.121 59.8865 572.481 59.5318 572.733 59.0745C572.985 58.6172 573.111 58.0758 573.111 57.4505V51.4585H574.959V57.5205C574.959 58.4445 574.749 59.2565 574.329 59.9565C573.909 60.6472 573.325 61.1885 572.579 61.5805C571.832 61.9632 570.959 62.1545 569.961 62.1545C568.971 62.1545 568.099 61.9632 567.343 61.5805C566.596 61.1885 566.013 60.6472 565.593 59.9565C565.173 59.2565 564.963 58.4445 564.963 57.5205V51.4585H566.811V57.4505ZM585.073 59.5505C585.073 60.0825 584.924 60.5445 584.625 60.9365C584.327 61.3285 583.874 61.6318 583.267 61.8465C582.661 62.0518 581.9 62.1545 580.985 62.1545C580.043 62.1545 579.226 62.0378 578.535 61.8045C577.845 61.5618 577.308 61.2258 576.925 60.7965C576.552 60.3578 576.351 59.8538 576.323 59.2845H578.171C578.227 59.5832 578.377 59.8492 578.619 60.0825C578.871 60.3065 579.198 60.4792 579.599 60.6005C580.01 60.7218 580.477 60.7825 580.999 60.7825C581.755 60.7825 582.325 60.6938 582.707 60.5165C583.09 60.3298 583.281 60.0498 583.281 59.6765C583.281 59.4245 583.151 59.2332 582.889 59.1025C582.637 58.9718 582.157 58.8738 581.447 58.8085L579.893 58.6685C579.053 58.5938 578.391 58.4445 577.905 58.2205C577.42 57.9872 577.075 57.7072 576.869 57.3805C576.664 57.0445 576.561 56.6898 576.561 56.3165C576.561 55.7752 576.729 55.3225 577.065 54.9585C577.401 54.5945 577.868 54.3192 578.465 54.1325C579.063 53.9365 579.758 53.8385 580.551 53.8385C581.373 53.8385 582.105 53.9552 582.749 54.1885C583.393 54.4125 583.907 54.7298 584.289 55.1405C584.672 55.5418 584.887 56.0085 584.933 56.5405H583.085C583.048 56.3258 582.936 56.1205 582.749 55.9245C582.572 55.7192 582.297 55.5512 581.923 55.4205C581.559 55.2805 581.069 55.2105 580.453 55.2105C579.8 55.2105 579.287 55.2945 578.913 55.4625C578.549 55.6305 578.367 55.8778 578.367 56.2045C578.367 56.4098 578.479 56.5872 578.703 56.7365C578.927 56.8765 579.343 56.9745 579.949 57.0305L581.951 57.2125C582.754 57.2872 583.379 57.4318 583.827 57.6465C584.285 57.8518 584.607 58.1178 584.793 58.4445C584.98 58.7712 585.073 59.1398 585.073 59.5505ZM593.941 61.9585L593.633 59.0185L593.997 57.9965L593.633 56.9885L593.941 54.0345H595.817L595.397 57.9965L595.817 61.9585H593.941ZM594.501 57.9965C594.324 58.8272 594.03 59.5552 593.619 60.1805C593.208 60.8058 592.7 61.2912 592.093 61.6365C591.496 61.9818 590.828 62.1545 590.091 62.1545C589.316 62.1545 588.63 61.9818 588.033 61.6365C587.436 61.2818 586.969 60.7918 586.633 60.1665C586.297 59.5412 586.129 58.8178 586.129 57.9965C586.129 57.1658 586.297 56.4425 586.633 55.8265C586.969 55.2012 587.436 54.7158 588.033 54.3705C588.63 54.0158 589.316 53.8385 590.091 53.8385C590.828 53.8385 591.496 54.0112 592.093 54.3565C592.7 54.7018 593.208 55.1872 593.619 55.8125C594.039 56.4285 594.333 57.1565 594.501 57.9965ZM587.977 57.9965C587.977 58.5285 588.084 58.9998 588.299 59.4105C588.523 59.8118 588.826 60.1292 589.209 60.3625C589.592 60.5865 590.03 60.6985 590.525 60.6985C591.029 60.6985 591.496 60.5865 591.925 60.3625C592.354 60.1292 592.732 59.8118 593.059 59.4105C593.395 58.9998 593.661 58.5285 593.857 57.9965C593.661 57.4645 593.395 56.9978 593.059 56.5965C592.732 56.1858 592.354 55.8685 591.925 55.6445C591.496 55.4112 591.029 55.2945 590.525 55.2945C590.03 55.2945 589.592 55.4112 589.209 55.6445C588.826 55.8685 588.523 56.1858 588.299 56.5965C588.084 56.9978 587.977 57.4645 587.977 57.9965ZM597.569 51.1785H599.389V56.7645L599.109 57.2825V58.7525L599.389 59.3405V61.9585H597.569V51.1785ZM598.661 57.9965C598.838 57.1565 599.132 56.4285 599.543 55.8125C599.953 55.1872 600.457 54.7018 601.055 54.3565C601.661 54.0112 602.333 53.8385 603.071 53.8385C603.845 53.8385 604.531 54.0158 605.129 54.3705C605.726 54.7158 606.193 55.2012 606.529 55.8265C606.865 56.4425 607.033 57.1658 607.033 57.9965C607.033 58.8178 606.865 59.5412 606.529 60.1665C606.193 60.7918 605.726 61.2818 605.129 61.6365C604.531 61.9818 603.845 62.1545 603.071 62.1545C602.333 62.1545 601.661 61.9818 601.055 61.6365C600.457 61.2912 599.953 60.8058 599.543 60.1805C599.132 59.5552 598.838 58.8272 598.661 57.9965ZM605.185 57.9965C605.185 57.4645 605.073 56.9978 604.849 56.5965C604.634 56.1858 604.335 55.8685 603.953 55.6445C603.57 55.4112 603.131 55.2945 602.637 55.2945C602.142 55.2945 601.675 55.4112 601.237 55.6445C600.807 55.8685 600.429 56.1858 600.103 56.5965C599.776 56.9978 599.51 57.4645 599.305 57.9965C599.51 58.5285 599.776 58.9998 600.103 59.4105C600.429 59.8118 600.807 60.1292 601.237 60.3625C601.675 60.5865 602.142 60.6985 602.637 60.6985C603.131 60.6985 603.57 60.5865 603.953 60.3625C604.335 60.1292 604.634 59.8118 604.849 59.4105C605.073 58.9998 605.185 58.5285 605.185 57.9965ZM608.547 53.9785L609.457 54.1465L610.367 53.9785V61.9585H608.547V53.9785ZM609.457 52.9845C609.112 52.9845 608.827 52.8912 608.603 52.7045C608.379 52.5085 608.267 52.2565 608.267 51.9485C608.267 51.6405 608.379 51.3932 608.603 51.2065C608.827 51.0105 609.112 50.9125 609.457 50.9125C609.812 50.9125 610.096 51.0105 610.311 51.2065C610.535 51.3932 610.647 51.6405 610.647 51.9485C610.647 52.2565 610.535 52.5085 610.311 52.7045C610.096 52.8912 609.812 52.9845 609.457 52.9845ZM612.293 51.1785H614.113V61.9585H612.293V51.1785ZM616.039 53.9785L616.949 54.1465L617.859 53.9785V61.9585H616.039V53.9785ZM616.949 52.9845C616.604 52.9845 616.319 52.8912 616.095 52.7045C615.871 52.5085 615.759 52.2565 615.759 51.9485C615.759 51.6405 615.871 51.3932 616.095 51.2065C616.319 51.0105 616.604 50.9125 616.949 50.9125C617.304 50.9125 617.589 51.0105 617.803 51.2065C618.027 51.3932 618.139 51.6405 618.139 51.9485C618.139 52.2565 618.027 52.5085 617.803 52.7045C617.589 52.8912 617.304 52.9845 616.949 52.9845ZM618.889 55.4345V54.6085L620.583 54.1745L621.339 51.9625H622.403V54.0345H626.085V55.4345H622.403V58.8645C622.403 59.5272 622.543 59.9938 622.823 60.2645C623.113 60.5258 623.579 60.6565 624.223 60.6565C624.634 60.6565 624.998 60.6145 625.315 60.5305C625.633 60.4372 625.936 60.3065 626.225 60.1385V61.6365C625.983 61.7578 625.637 61.8745 625.189 61.9865C624.751 62.0985 624.298 62.1545 623.831 62.1545C623.057 62.1545 622.431 62.0285 621.955 61.7765C621.479 61.5152 621.129 61.1605 620.905 60.7125C620.691 60.2552 620.583 59.7325 620.583 59.1445V55.4345H618.889ZM629.373 64.4645C628.906 64.4645 628.482 64.4038 628.099 64.2825C627.726 64.1705 627.376 64.0118 627.049 63.8065V62.4205C627.404 62.6445 627.74 62.8078 628.057 62.9105C628.384 63.0132 628.748 63.0645 629.149 63.0645C629.532 63.0645 629.872 62.9758 630.171 62.7985C630.47 62.6305 630.717 62.3318 630.913 61.9025L634.483 54.0345H636.415L632.313 62.5185C632.089 62.9852 631.823 63.3585 631.515 63.6385C631.216 63.9278 630.885 64.1378 630.521 64.2685C630.166 64.3992 629.784 64.4645 629.373 64.4645ZM630.283 61.7065L626.643 54.0345H628.645L632.089 61.7065H630.283ZM570.135 75.4345V74.6085L571.829 74.1745L572.585 71.9625H573.649V74.0345H577.331V75.4345H573.649V78.8645C573.649 79.5272 573.789 79.9938 574.069 80.2645C574.359 80.5258 574.825 80.6565 575.469 80.6565C575.88 80.6565 576.244 80.6145 576.561 80.5305C576.879 80.4372 577.182 80.3065 577.471 80.1385V81.6365C577.229 81.7578 576.883 81.8745 576.435 81.9865C575.997 82.0985 575.544 82.1545 575.077 82.1545C574.303 82.1545 573.677 82.0285 573.201 81.7765C572.725 81.5152 572.375 81.1605 572.151 80.7125C571.937 80.2552 571.829 79.7325 571.829 79.1445V75.4345H570.135ZM582.85 82.1545C581.926 82.1545 581.104 81.9818 580.386 81.6365C579.667 81.2818 579.102 80.7918 578.692 80.1665C578.281 79.5412 578.076 78.8132 578.076 77.9825C578.076 77.1612 578.267 76.4425 578.65 75.8265C579.042 75.2012 579.578 74.7158 580.26 74.3705C580.95 74.0158 581.739 73.8385 582.626 73.8385C583.512 73.8385 584.278 74.0392 584.922 74.4405C585.575 74.8325 586.079 75.3878 586.434 76.1065C586.788 76.8252 586.966 77.6698 586.966 78.6405H579.504V77.2545H586.056L585.146 77.7725C585.118 77.2498 584.992 76.8018 584.768 76.4285C584.553 76.0552 584.259 75.7705 583.886 75.5745C583.522 75.3692 583.088 75.2665 582.584 75.2665C582.052 75.2665 581.585 75.3738 581.184 75.5885C580.792 75.8032 580.484 76.1065 580.26 76.4985C580.036 76.8812 579.924 77.3385 579.924 77.8705C579.924 78.4585 580.054 78.9672 580.316 79.3965C580.586 79.8258 580.964 80.1572 581.45 80.3905C581.944 80.6145 582.528 80.7265 583.2 80.7265C583.806 80.7265 584.427 80.6332 585.062 80.4465C585.696 80.2505 586.256 79.9798 586.742 79.6345V80.9505C586.256 81.3238 585.664 81.6178 584.964 81.8325C584.273 82.0472 583.568 82.1545 582.85 82.1545ZM596.667 79.5505C596.667 80.0825 596.518 80.5445 596.219 80.9365C595.92 81.3285 595.468 81.6318 594.861 81.8465C594.254 82.0518 593.494 82.1545 592.579 82.1545C591.636 82.1545 590.82 82.0378 590.129 81.8045C589.438 81.5618 588.902 81.2258 588.519 80.7965C588.146 80.3578 587.945 79.8538 587.917 79.2845H589.765C589.821 79.5832 589.97 79.8492 590.213 80.0825C590.465 80.3065 590.792 80.4792 591.193 80.6005C591.604 80.7218 592.07 80.7825 592.593 80.7825C593.349 80.7825 593.918 80.6938 594.301 80.5165C594.684 80.3298 594.875 80.0498 594.875 79.6765C594.875 79.4245 594.744 79.2332 594.483 79.1025C594.231 78.9718 593.75 78.8738 593.041 78.8085L591.487 78.6685C590.647 78.5938 589.984 78.4445 589.499 78.2205C589.014 77.9872 588.668 77.7072 588.463 77.3805C588.258 77.0445 588.155 76.6898 588.155 76.3165C588.155 75.7752 588.323 75.3225 588.659 74.9585C588.995 74.5945 589.462 74.3192 590.059 74.1325C590.656 73.9365 591.352 73.8385 592.145 73.8385C592.966 73.8385 593.699 73.9552 594.343 74.1885C594.987 74.4125 595.5 74.7298 595.883 75.1405C596.266 75.5418 596.48 76.0085 596.527 76.5405H594.679C594.642 76.3258 594.53 76.1205 594.343 75.9245C594.166 75.7192 593.89 75.5512 593.517 75.4205C593.153 75.2805 592.663 75.2105 592.047 75.2105C591.394 75.2105 590.88 75.2945 590.507 75.4625C590.143 75.6305 589.961 75.8778 589.961 76.2045C589.961 76.4098 590.073 76.5872 590.297 76.7365C590.521 76.8765 590.936 76.9745 591.543 77.0305L593.545 77.2125C594.348 77.2872 594.973 77.4318 595.421 77.6465C595.878 77.8518 596.2 78.1178 596.387 78.4445C596.574 78.7712 596.667 79.1398 596.667 79.5505ZM597.178 75.4345V74.6085L598.872 74.1745L599.628 71.9625H600.692V74.0345H604.374V75.4345H600.692V78.8645C600.692 79.5272 600.832 79.9938 601.112 80.2645C601.402 80.5258 601.868 80.6565 602.512 80.6565C602.923 80.6565 603.287 80.6145 603.604 80.5305C603.922 80.4372 604.225 80.3065 604.514 80.1385V81.6365C604.272 81.7578 603.926 81.8745 603.478 81.9865C603.04 82.0985 602.587 82.1545 602.12 82.1545C601.346 82.1545 600.72 82.0285 600.244 81.7765C599.768 81.5152 599.418 81.1605 599.194 80.7125C598.98 80.2552 598.872 79.7325 598.872 79.1445V75.4345H597.178ZM605.84 73.9785L606.75 74.1465L607.66 73.9785V81.9585H605.84V73.9785ZM606.75 72.9845C606.405 72.9845 606.12 72.8912 605.896 72.7045C605.672 72.5085 605.56 72.2565 605.56 71.9485C605.56 71.6405 605.672 71.3932 605.896 71.2065C606.12 71.0105 606.405 70.9125 606.75 70.9125C607.105 70.9125 607.389 71.0105 607.604 71.2065C607.828 71.3932 607.94 71.6405 607.94 71.9485C607.94 72.2565 607.828 72.5085 607.604 72.7045C607.389 72.8912 607.105 72.9845 606.75 72.9845ZM609.208 74.0345H611.028L611.504 76.8905V81.9585H609.684V76.6245L609.208 74.0345ZM614.654 73.8385C615.401 73.8385 616.035 73.9878 616.558 74.2865C617.081 74.5852 617.477 75.0145 617.748 75.5745C618.028 76.1252 618.168 76.7925 618.168 77.5765V81.9585H616.348V77.8705C616.348 77.0398 616.152 76.4145 615.76 75.9945C615.377 75.5652 614.813 75.3505 614.066 75.3505C613.553 75.3505 613.1 75.4672 612.708 75.7005C612.325 75.9245 612.027 76.2418 611.812 76.6525C611.607 77.0632 611.504 77.5438 611.504 78.0945L610.86 77.7445C610.944 76.9232 611.159 76.2232 611.504 75.6445C611.849 75.0658 612.293 74.6225 612.834 74.3145C613.375 73.9972 613.982 73.8385 614.654 73.8385ZM627.186 80.0125V78.6125L627.256 78.3605V76.8345L627.186 76.5545V74.0345H629.006V79.8445C629.006 80.8618 628.792 81.7112 628.362 82.3925C627.933 83.0832 627.345 83.6012 626.598 83.9465C625.852 84.2918 624.993 84.4645 624.022 84.4645C623.313 84.4645 622.66 84.3712 622.062 84.1845C621.465 83.9978 620.886 83.7132 620.326 83.3305V81.8185C620.896 82.2665 621.484 82.5792 622.09 82.7565C622.697 82.9432 623.304 83.0365 623.91 83.0365C624.974 83.0365 625.786 82.7752 626.346 82.2525C626.906 81.7298 627.186 80.9832 627.186 80.0125ZM623.378 81.3425C622.65 81.3425 621.997 81.1885 621.418 80.8805C620.84 80.5632 620.382 80.1245 620.046 79.5645C619.71 79.0045 619.542 78.3465 619.542 77.5905C619.542 76.8345 619.71 76.1765 620.046 75.6165C620.382 75.0565 620.84 74.6225 621.418 74.3145C621.997 73.9972 622.65 73.8385 623.378 73.8385C623.92 73.8385 624.419 73.9225 624.876 74.0905C625.343 74.2585 625.758 74.4825 626.122 74.7625C626.496 75.0332 626.808 75.3365 627.06 75.6725C627.322 75.9992 627.522 76.3352 627.662 76.6805C627.802 77.0165 627.872 77.3245 627.872 77.6045C627.872 77.9685 627.765 78.3698 627.55 78.8085C627.336 79.2378 627.028 79.6438 626.626 80.0265C626.234 80.4092 625.763 80.7265 625.212 80.9785C624.662 81.2212 624.05 81.3425 623.378 81.3425ZM623.938 79.9985C624.601 79.9985 625.208 79.8072 625.758 79.4245C626.318 79.0418 626.818 78.4305 627.256 77.5905C626.818 76.7318 626.318 76.1158 625.758 75.7425C625.208 75.3598 624.601 75.1685 623.938 75.1685C623.397 75.1685 622.935 75.2712 622.552 75.4765C622.17 75.6818 621.876 75.9665 621.67 76.3305C621.474 76.6945 621.376 77.1145 621.376 77.5905C621.376 78.0572 621.474 78.4725 621.67 78.8365C621.876 79.2005 622.17 79.4852 622.552 79.6905C622.935 79.8958 623.397 79.9985 623.938 79.9985Z" fill="#1A1A1A"/>
<path d="M683.092 66.6545H690.196L693.46 66.8945V68.1905L690.196 68.4465H683.092V66.6545ZM690.26 62.6385L695.012 67.5505L690.26 72.4625L689.076 71.3265L693.492 66.8465V68.2545L689.076 63.7745L690.26 62.6385Z" fill="black"/>
<rect x="712" y="0.958496" width="132" height="132" rx="66" fill="white"/>
<path d="M754.043 56.1905H758.313C758.929 56.1905 759.414 56.0505 759.769 55.7705C760.133 55.4905 760.315 55.1078 760.315 54.6225C760.315 54.1278 760.133 53.7452 759.769 53.4745C759.414 53.1945 758.929 53.0545 758.313 53.0545H753.777L754.603 52.0185V61.9585H752.755V51.4585H758.481C759.218 51.4585 759.862 51.5938 760.413 51.8645C760.973 52.1258 761.407 52.4945 761.715 52.9705C762.032 53.4372 762.191 53.9878 762.191 54.6225C762.191 55.2385 762.032 55.7845 761.715 56.2605C761.407 56.7272 760.973 57.0958 760.413 57.3665C759.862 57.6278 759.218 57.7585 758.481 57.7585H754.043V56.1905ZM756.115 57.0445H758.285L762.457 61.9585H760.245L756.115 57.0445ZM767.863 62.1545C766.939 62.1545 766.118 61.9818 765.399 61.6365C764.681 61.2818 764.116 60.7918 763.705 60.1665C763.295 59.5412 763.089 58.8132 763.089 57.9825C763.089 57.1612 763.281 56.4425 763.663 55.8265C764.055 55.2012 764.592 54.7158 765.273 54.3705C765.964 54.0158 766.753 53.8385 767.639 53.8385C768.526 53.8385 769.291 54.0392 769.935 54.4405C770.589 54.8325 771.093 55.3878 771.447 56.1065C771.802 56.8252 771.979 57.6698 771.979 58.6405H764.517V57.2545H771.069L770.159 57.7725C770.131 57.2498 770.005 56.8018 769.781 56.4285C769.567 56.0552 769.273 55.7705 768.899 55.5745C768.535 55.3692 768.101 55.2665 767.597 55.2665C767.065 55.2665 766.599 55.3738 766.197 55.5885C765.805 55.8032 765.497 56.1065 765.273 56.4985C765.049 56.8812 764.937 57.3385 764.937 57.8705C764.937 58.4585 765.068 58.9672 765.329 59.3965C765.6 59.8258 765.978 60.1572 766.463 60.3905C766.958 60.6145 767.541 60.7265 768.213 60.7265C768.82 60.7265 769.441 60.6332 770.075 60.4465C770.71 60.2505 771.27 59.9798 771.755 59.6345V60.9505C771.27 61.3238 770.677 61.6178 769.977 61.8325C769.287 62.0472 768.582 62.1545 767.863 62.1545ZM778.253 52.3965C777.609 52.3965 777.129 52.5272 776.811 52.7885C776.503 53.0498 776.349 53.4932 776.349 54.1185V61.9585H774.529V54.3425C774.529 53.6705 774.655 53.0825 774.907 52.5785C775.159 52.0745 775.542 51.6825 776.055 51.4025C776.578 51.1225 777.245 50.9825 778.057 50.9825C778.421 50.9825 778.748 51.0152 779.037 51.0805C779.327 51.1458 779.602 51.2298 779.863 51.3325V52.7605C779.621 52.6298 779.369 52.5365 779.107 52.4805C778.846 52.4245 778.561 52.3965 778.253 52.3965ZM772.835 55.9805V54.5805H779.821V55.9805H772.835ZM781.291 53.9785L782.201 54.1465L783.111 53.9785V61.9585H781.291V53.9785ZM782.201 52.9845C781.856 52.9845 781.571 52.8912 781.347 52.7045C781.123 52.5085 781.011 52.2565 781.011 51.9485C781.011 51.6405 781.123 51.3932 781.347 51.2065C781.571 51.0105 781.856 50.9125 782.201 50.9125C782.556 50.9125 782.841 51.0105 783.055 51.2065C783.279 51.3932 783.391 51.6405 783.391 51.9485C783.391 52.2565 783.279 52.5085 783.055 52.7045C782.841 52.8912 782.556 52.9845 782.201 52.9845ZM784.665 54.0345H786.485L786.961 56.8905V61.9585H785.141V56.6245L784.665 54.0345ZM790.111 53.8385C790.858 53.8385 791.492 53.9878 792.015 54.2865C792.538 54.5852 792.934 55.0145 793.205 55.5745C793.485 56.1252 793.625 56.7925 793.625 57.5765V61.9585H791.805V57.8705C791.805 57.0398 791.609 56.4145 791.217 55.9945C790.834 55.5652 790.27 55.3505 789.523 55.3505C789.01 55.3505 788.557 55.4672 788.165 55.7005C787.782 55.9245 787.484 56.2418 787.269 56.6525C787.064 57.0632 786.961 57.5438 786.961 58.0945L786.317 57.7445C786.401 56.9232 786.616 56.2232 786.961 55.6445C787.306 55.0658 787.75 54.6225 788.291 54.3145C788.832 53.9972 789.439 53.8385 790.111 53.8385ZM799.773 62.1545C798.849 62.1545 798.028 61.9818 797.309 61.6365C796.591 61.2818 796.026 60.7918 795.615 60.1665C795.205 59.5412 794.999 58.8132 794.999 57.9825C794.999 57.1612 795.191 56.4425 795.573 55.8265C795.965 55.2012 796.502 54.7158 797.183 54.3705C797.874 54.0158 798.663 53.8385 799.549 53.8385C800.436 53.8385 801.201 54.0392 801.845 54.4405C802.499 54.8325 803.003 55.3878 803.357 56.1065C803.712 56.8252 803.889 57.6698 803.889 58.6405H796.427V57.2545H802.979L802.069 57.7725C802.041 57.2498 801.915 56.8018 801.691 56.4285C801.477 56.0552 801.183 55.7705 800.809 55.5745C800.445 55.3692 800.011 55.2665 799.507 55.2665C798.975 55.2665 798.509 55.3738 798.107 55.5885C797.715 55.8032 797.407 56.1065 797.183 56.4985C796.959 56.8812 796.847 57.3385 796.847 57.8705C796.847 58.4585 796.978 58.9672 797.239 59.3965C797.51 59.8258 797.888 60.1572 798.373 60.3905C798.868 60.6145 799.451 60.7265 800.123 60.7265C800.73 60.7265 801.351 60.6332 801.985 60.4465C802.62 60.2505 803.18 59.9798 803.665 59.6345V60.9505C803.18 61.3238 802.587 61.6178 801.887 61.8325C801.197 62.0472 800.492 62.1545 799.773 62.1545ZM753.69 81.9585L753.382 78.9485L753.788 78.0105L753.396 76.9325L753.984 71.1785H755.86L755.146 77.8845L755.552 81.9585H753.69ZM754.222 77.9965C754.044 78.8272 753.75 79.5552 753.34 80.1805C752.929 80.8058 752.42 81.2912 751.814 81.6365C751.216 81.9818 750.549 82.1545 749.812 82.1545C749.037 82.1545 748.351 81.9818 747.754 81.6365C747.156 81.2818 746.69 80.7918 746.354 80.1665C746.018 79.5412 745.85 78.8178 745.85 77.9965C745.85 77.1658 746.018 76.4425 746.354 75.8265C746.69 75.2012 747.156 74.7158 747.754 74.3705C748.351 74.0158 749.037 73.8385 749.812 73.8385C750.549 73.8385 751.216 74.0112 751.814 74.3565C752.42 74.7018 752.929 75.1872 753.34 75.8125C753.76 76.4285 754.054 77.1565 754.222 77.9965ZM747.698 77.9965C747.698 78.5285 747.805 78.9998 748.02 79.4105C748.244 79.8118 748.547 80.1292 748.93 80.3625C749.312 80.5865 749.751 80.6985 750.246 80.6985C750.75 80.6985 751.216 80.5865 751.646 80.3625C752.075 80.1292 752.453 79.8118 752.78 79.4105C753.116 78.9998 753.382 78.5285 753.578 77.9965C753.382 77.4645 753.116 76.9978 752.78 76.5965C752.453 76.1858 752.075 75.8685 751.646 75.6445C751.216 75.4112 750.75 75.2945 750.246 75.2945C749.751 75.2945 749.312 75.4112 748.93 75.6445C748.547 75.8685 748.244 76.1858 748.02 76.5965C747.805 76.9978 747.698 77.4645 747.698 77.9965ZM761.629 82.1545C760.705 82.1545 759.884 81.9818 759.165 81.6365C758.446 81.2818 757.882 80.7918 757.471 80.1665C757.06 79.5412 756.855 78.8132 756.855 77.9825C756.855 77.1612 757.046 76.4425 757.429 75.8265C757.821 75.2012 758.358 74.7158 759.039 74.3705C759.73 74.0158 760.518 73.8385 761.405 73.8385C762.292 73.8385 763.057 74.0392 763.701 74.4405C764.354 74.8325 764.858 75.3878 765.213 76.1065C765.568 76.8252 765.745 77.6698 765.745 78.6405H758.283V77.2545H764.835L763.925 77.7725C763.897 77.2498 763.771 76.8018 763.547 76.4285C763.332 76.0552 763.038 75.7705 762.665 75.5745C762.301 75.3692 761.867 75.2665 761.363 75.2665C760.831 75.2665 760.364 75.3738 759.963 75.5885C759.571 75.8032 759.263 76.1065 759.039 76.4985C758.815 76.8812 758.703 77.3385 758.703 77.8705C758.703 78.4585 758.834 78.9672 759.095 79.3965C759.366 79.8258 759.744 80.1572 760.229 80.3905C760.724 80.6145 761.307 80.7265 761.979 80.7265C762.586 80.7265 763.206 80.6332 763.841 80.4465C764.476 80.2505 765.036 79.9798 765.521 79.6345V80.9505C765.036 81.3238 764.443 81.6178 763.743 81.8325C763.052 82.0472 762.348 82.1545 761.629 82.1545ZM775.446 79.5505C775.446 80.0825 775.297 80.5445 774.998 80.9365C774.7 81.3285 774.247 81.6318 773.64 81.8465C773.034 82.0518 772.273 82.1545 771.358 82.1545C770.416 82.1545 769.599 82.0378 768.908 81.8045C768.218 81.5618 767.681 81.2258 767.298 80.7965C766.925 80.3578 766.724 79.8538 766.696 79.2845H768.544C768.6 79.5832 768.75 79.8492 768.992 80.0825C769.244 80.3065 769.571 80.4792 769.972 80.6005C770.383 80.7218 770.85 80.7825 771.372 80.7825C772.128 80.7825 772.698 80.6938 773.08 80.5165C773.463 80.3298 773.654 80.0498 773.654 79.6765C773.654 79.4245 773.524 79.2332 773.262 79.1025C773.01 78.9718 772.53 78.8738 771.82 78.8085L770.266 78.6685C769.426 78.5938 768.764 78.4445 768.278 78.2205C767.793 77.9872 767.448 77.7072 767.242 77.3805C767.037 77.0445 766.934 76.6898 766.934 76.3165C766.934 75.7752 767.102 75.3225 767.438 74.9585C767.774 74.5945 768.241 74.3192 768.838 74.1325C769.436 73.9365 770.131 73.8385 770.924 73.8385C771.746 73.8385 772.478 73.9552 773.122 74.1885C773.766 74.4125 774.28 74.7298 774.662 75.1405C775.045 75.5418 775.26 76.0085 775.306 76.5405H773.458C773.421 76.3258 773.309 76.1205 773.122 75.9245C772.945 75.7192 772.67 75.5512 772.296 75.4205C771.932 75.2805 771.442 75.2105 770.826 75.2105C770.173 75.2105 769.66 75.2945 769.286 75.4625C768.922 75.6305 768.74 75.8778 768.74 76.2045C768.74 76.4098 768.852 76.5872 769.076 76.7365C769.3 76.8765 769.716 76.9745 770.322 77.0305L772.324 77.2125C773.127 77.2872 773.752 77.4318 774.2 77.6465C774.658 77.8518 774.98 78.1178 775.166 78.4445C775.353 78.7712 775.446 79.1398 775.446 79.5505ZM776.922 73.9785L777.832 74.1465L778.742 73.9785V81.9585H776.922V73.9785ZM777.832 72.9845C777.487 72.9845 777.202 72.8912 776.978 72.7045C776.754 72.5085 776.642 72.2565 776.642 71.9485C776.642 71.6405 776.754 71.3932 776.978 71.2065C777.202 71.0105 777.487 70.9125 777.832 70.9125C778.187 70.9125 778.471 71.0105 778.686 71.2065C778.91 71.3932 779.022 71.6405 779.022 71.9485C779.022 72.2565 778.91 72.5085 778.686 72.7045C778.471 72.8912 778.187 72.9845 777.832 72.9845ZM787.864 80.0125V78.6125L787.934 78.3605V76.8345L787.864 76.5545V74.0345H789.684V79.8445C789.684 80.8618 789.469 81.7112 789.04 82.3925C788.611 83.0832 788.023 83.6012 787.276 83.9465C786.529 84.2918 785.671 84.4645 784.7 84.4645C783.991 84.4645 783.337 84.3712 782.74 84.1845C782.143 83.9978 781.564 83.7132 781.004 83.3305V81.8185C781.573 82.2665 782.161 82.5792 782.768 82.7565C783.375 82.9432 783.981 83.0365 784.588 83.0365C785.652 83.0365 786.464 82.7752 787.024 82.2525C787.584 81.7298 787.864 80.9832 787.864 80.0125ZM784.056 81.3425C783.328 81.3425 782.675 81.1885 782.096 80.8805C781.517 80.5632 781.06 80.1245 780.724 79.5645C780.388 79.0045 780.22 78.3465 780.22 77.5905C780.22 76.8345 780.388 76.1765 780.724 75.6165C781.06 75.0565 781.517 74.6225 782.096 74.3145C782.675 73.9972 783.328 73.8385 784.056 73.8385C784.597 73.8385 785.097 73.9225 785.554 74.0905C786.021 74.2585 786.436 74.4825 786.8 74.7625C787.173 75.0332 787.486 75.3365 787.738 75.6725C787.999 75.9992 788.2 76.3352 788.34 76.6805C788.48 77.0165 788.55 77.3245 788.55 77.6045C788.55 77.9685 788.443 78.3698 788.228 78.8085C788.013 79.2378 787.705 79.6438 787.304 80.0265C786.912 80.4092 786.441 80.7265 785.89 80.9785C785.339 81.2212 784.728 81.3425 784.056 81.3425ZM784.616 79.9985C785.279 79.9985 785.885 79.8072 786.436 79.4245C786.996 79.0418 787.495 78.4305 787.934 77.5905C787.495 76.7318 786.996 76.1158 786.436 75.7425C785.885 75.3598 785.279 75.1685 784.616 75.1685C784.075 75.1685 783.613 75.2712 783.23 75.4765C782.847 75.6818 782.553 75.9665 782.348 76.3305C782.152 76.6945 782.054 77.1145 782.054 77.5905C782.054 78.0572 782.152 78.4725 782.348 78.8365C782.553 79.2005 782.847 79.4852 783.23 79.6905C783.613 79.8958 784.075 79.9985 784.616 79.9985ZM791.2 74.0345H793.02L793.496 76.8905V81.9585H791.676V76.6245L791.2 74.0345ZM796.646 73.8385C797.393 73.8385 798.028 73.9878 798.55 74.2865C799.073 74.5852 799.47 75.0145 799.74 75.5745C800.02 76.1252 800.16 76.7925 800.16 77.5765V81.9585H798.34V77.8705C798.34 77.0398 798.144 76.4145 797.752 75.9945C797.37 75.5652 796.805 75.3505 796.058 75.3505C795.545 75.3505 795.092 75.4672 794.7 75.7005C794.318 75.9245 794.019 76.2418 793.804 76.6525C793.599 77.0632 793.496 77.5438 793.496 78.0945L792.852 77.7445C792.936 76.9232 793.151 76.2232 793.496 75.6445C793.842 75.0658 794.285 74.6225 794.826 74.3145C795.368 73.9972 795.974 73.8385 796.646 73.8385ZM810.187 79.5505C810.187 80.0825 810.037 80.5445 809.739 80.9365C809.44 81.3285 808.987 81.6318 808.381 81.8465C807.774 82.0518 807.013 82.1545 806.099 82.1545C805.156 82.1545 804.339 82.0378 803.649 81.8045C802.958 81.5618 802.421 81.2258 802.039 80.7965C801.665 80.3578 801.465 79.8538 801.437 79.2845H803.285C803.341 79.5832 803.49 79.8492 803.733 80.0825C803.985 80.3065 804.311 80.4792 804.713 80.6005C805.123 80.7218 805.59 80.7825 806.113 80.7825C806.869 80.7825 807.438 80.6938 807.821 80.5165C808.203 80.3298 808.395 80.0498 808.395 79.6765C808.395 79.4245 808.264 79.2332 808.003 79.1025C807.751 78.9718 807.27 78.8738 806.561 78.8085L805.007 78.6685C804.167 78.5938 803.504 78.4445 803.019 78.2205C802.533 77.9872 802.188 77.7072 801.983 77.3805C801.777 77.0445 801.675 76.6898 801.675 76.3165C801.675 75.7752 801.843 75.3225 802.179 74.9585C802.515 74.5945 802.981 74.3192 803.579 74.1325C804.176 73.9365 804.871 73.8385 805.665 73.8385C806.486 73.8385 807.219 73.9552 807.863 74.1885C808.507 74.4125 809.02 74.7298 809.403 75.1405C809.785 75.5418 810 76.0085 810.047 76.5405H808.199C808.161 76.3258 808.049 76.1205 807.863 75.9245C807.685 75.7192 807.41 75.5512 807.037 75.4205C806.673 75.2805 806.183 75.2105 805.567 75.2105C804.913 75.2105 804.4 75.2945 804.027 75.4625C803.663 75.6305 803.481 75.8778 803.481 76.2045C803.481 76.4098 803.593 76.5872 803.817 76.7365C804.041 76.8765 804.456 76.9745 805.063 77.0305L807.065 77.2125C807.867 77.2872 808.493 77.4318 808.941 77.6465C809.398 77.8518 809.72 78.1178 809.907 78.4445C810.093 78.7712 810.187 79.1398 810.187 79.5505Z" fill="#1A1A1A"/>
<path d="M861.092 66.6545H868.196L871.46 66.8945V68.1905L868.196 68.4465H861.092V66.6545ZM868.26 62.6385L873.012 67.5505L868.26 72.4625L867.076 71.3265L871.492 66.8465V68.2545L867.076 63.7745L868.26 62.6385Z" fill="black"/>
<rect x="890" y="0.958496" width="132" height="132" rx="66" fill="white"/>
<path d="M915.402 46.0505H922.948V47.6745H915.402V46.0505ZM923.172 41.4585V43.0825H915.346L916.354 42.0325V51.9585H914.506V41.4585H923.172ZM924.659 41.1785H926.479V51.9585H924.659V41.1785ZM932.787 52.1545C931.826 52.1545 930.981 51.9818 930.253 51.6365C929.535 51.2818 928.97 50.7918 928.559 50.1665C928.158 49.5412 927.957 48.8178 927.957 47.9965C927.957 47.1658 928.158 46.4425 928.559 45.8265C928.97 45.2012 929.535 44.7158 930.253 44.3705C930.981 44.0158 931.826 43.8385 932.787 43.8385C933.749 43.8385 934.589 44.0158 935.307 44.3705C936.035 44.7158 936.6 45.2012 937.001 45.8265C937.412 46.4425 937.617 47.1658 937.617 47.9965C937.617 48.8178 937.412 49.5412 937.001 50.1665C936.6 50.7918 936.035 51.2818 935.307 51.6365C934.589 51.9818 933.749 52.1545 932.787 52.1545ZM932.787 50.7265C933.403 50.7265 933.931 50.6145 934.369 50.3905C934.817 50.1665 935.163 49.8538 935.405 49.4525C935.648 49.0418 935.769 48.5565 935.769 47.9965C935.769 47.4365 935.648 46.9558 935.405 46.5545C935.163 46.1438 934.817 45.8265 934.369 45.6025C933.931 45.3785 933.403 45.2665 932.787 45.2665C932.181 45.2665 931.653 45.3785 931.205 45.6025C930.757 45.8265 930.412 46.1438 930.169 46.5545C929.927 46.9558 929.805 47.4365 929.805 47.9965C929.805 48.5565 929.927 49.0418 930.169 49.4525C930.412 49.8538 930.757 50.1665 931.205 50.3905C931.653 50.6145 932.181 50.7265 932.787 50.7265ZM949.115 51.0205H948.471L951.201 44.0345H953.021L949.829 51.9585H947.967L945.167 44.8605H945.881L943.011 51.9585H941.149L937.971 44.0345H939.819L942.563 51.0205H941.877L944.621 44.0345H946.441L949.115 51.0205ZM961.998 49.5505C961.998 50.0825 961.849 50.5445 961.55 50.9365C961.251 51.3285 960.799 51.6318 960.192 51.8465C959.585 52.0518 958.825 52.1545 957.91 52.1545C956.967 52.1545 956.151 52.0378 955.46 51.8045C954.769 51.5618 954.233 51.2258 953.85 50.7965C953.477 50.3578 953.276 49.8538 953.248 49.2845H955.096C955.152 49.5832 955.301 49.8492 955.544 50.0825C955.796 50.3065 956.123 50.4792 956.524 50.6005C956.935 50.7218 957.401 50.7825 957.924 50.7825C958.68 50.7825 959.249 50.6938 959.632 50.5165C960.015 50.3298 960.206 50.0498 960.206 49.6765C960.206 49.4245 960.075 49.2332 959.814 49.1025C959.562 48.9718 959.081 48.8738 958.372 48.8085L956.818 48.6685C955.978 48.5938 955.315 48.4445 954.83 48.2205C954.345 47.9872 953.999 47.7072 953.794 47.3805C953.589 47.0445 953.486 46.6898 953.486 46.3165C953.486 45.7752 953.654 45.3225 953.99 44.9585C954.326 44.5945 954.793 44.3192 955.39 44.1325C955.987 43.9365 956.683 43.8385 957.476 43.8385C958.297 43.8385 959.03 43.9552 959.674 44.1885C960.318 44.4125 960.831 44.7298 961.214 45.1405C961.597 45.5418 961.811 46.0085 961.858 46.5405H960.01C959.973 46.3258 959.861 46.1205 959.674 45.9245C959.497 45.7192 959.221 45.5512 958.848 45.4205C958.484 45.2805 957.994 45.2105 957.378 45.2105C956.725 45.2105 956.211 45.2945 955.838 45.4625C955.474 45.6305 955.292 45.8778 955.292 46.2045C955.292 46.4098 955.404 46.5872 955.628 46.7365C955.852 46.8765 956.267 46.9745 956.874 47.0305L958.876 47.2125C959.679 47.2872 960.304 47.4318 960.752 47.6465C961.209 47.8518 961.531 48.1178 961.718 48.4445C961.905 48.7712 961.998 49.1398 961.998 49.5505ZM974.571 51.9585L974.263 49.0185L974.627 47.9965L974.263 46.9885L974.571 44.0345H976.447L976.027 47.9965L976.447 51.9585H974.571ZM975.131 47.9965C974.954 48.8272 974.66 49.5552 974.249 50.1805C973.838 50.8058 973.33 51.2912 972.723 51.6365C972.126 51.9818 971.458 52.1545 970.721 52.1545C969.946 52.1545 969.26 51.9818 968.663 51.6365C968.066 51.2818 967.599 50.7918 967.263 50.1665C966.927 49.5412 966.759 48.8178 966.759 47.9965C966.759 47.1658 966.927 46.4425 967.263 45.8265C967.599 45.2012 968.066 44.7158 968.663 44.3705C969.26 44.0158 969.946 43.8385 970.721 43.8385C971.458 43.8385 972.126 44.0112 972.723 44.3565C973.33 44.7018 973.838 45.1872 974.249 45.8125C974.669 46.4285 974.963 47.1565 975.131 47.9965ZM968.607 47.9965C968.607 48.5285 968.714 48.9998 968.929 49.4105C969.153 49.8118 969.456 50.1292 969.839 50.3625C970.222 50.5865 970.66 50.6985 971.155 50.6985C971.659 50.6985 972.126 50.5865 972.555 50.3625C972.984 50.1292 973.362 49.8118 973.689 49.4105C974.025 48.9998 974.291 48.5285 974.487 47.9965C974.291 47.4645 974.025 46.9978 973.689 46.5965C973.362 46.1858 972.984 45.8685 972.555 45.6445C972.126 45.4112 971.659 45.2945 971.155 45.2945C970.66 45.2945 970.222 45.4112 969.839 45.6445C969.456 45.8685 969.153 46.1858 968.929 46.5965C968.714 46.9978 968.607 47.4645 968.607 47.9965ZM977.82 44.0345H979.64L980.116 46.8905V51.9585H978.296V46.6245L977.82 44.0345ZM983.266 43.8385C984.013 43.8385 984.648 43.9878 985.17 44.2865C985.693 44.5852 986.09 45.0145 986.36 45.5745C986.64 46.1252 986.78 46.7925 986.78 47.5765V51.9585H984.96V47.8705C984.96 47.0398 984.764 46.4145 984.372 45.9945C983.99 45.5652 983.425 45.3505 982.678 45.3505C982.165 45.3505 981.712 45.4672 981.32 45.7005C980.938 45.9245 980.639 46.2418 980.424 46.6525C980.219 47.0632 980.116 47.5438 980.116 48.0945L979.472 47.7445C979.556 46.9232 979.771 46.2232 980.116 45.6445C980.462 45.0658 980.905 44.6225 981.446 44.3145C981.988 43.9972 982.594 43.8385 983.266 43.8385ZM996.023 51.9585L995.715 48.9485L996.121 48.0105L995.729 46.9325L996.317 41.1785H998.193L997.479 47.8845L997.885 51.9585H996.023ZM996.555 47.9965C996.377 48.8272 996.083 49.5552 995.673 50.1805C995.262 50.8058 994.753 51.2912 994.147 51.6365C993.549 51.9818 992.882 52.1545 992.145 52.1545C991.37 52.1545 990.684 51.9818 990.087 51.6365C989.489 51.2818 989.023 50.7918 988.687 50.1665C988.351 49.5412 988.183 48.8178 988.183 47.9965C988.183 47.1658 988.351 46.4425 988.687 45.8265C989.023 45.2012 989.489 44.7158 990.087 44.3705C990.684 44.0158 991.37 43.8385 992.145 43.8385C992.882 43.8385 993.549 44.0112 994.147 44.3565C994.753 44.7018 995.262 45.1872 995.673 45.8125C996.093 46.4285 996.387 47.1565 996.555 47.9965ZM990.031 47.9965C990.031 48.5285 990.138 48.9998 990.353 49.4105C990.577 49.8118 990.88 50.1292 991.263 50.3625C991.645 50.5865 992.084 50.6985 992.579 50.6985C993.083 50.6985 993.549 50.5865 993.979 50.3625C994.408 50.1292 994.786 49.8118 995.113 49.4105C995.449 48.9998 995.715 48.5285 995.911 47.9965C995.715 47.4645 995.449 46.9978 995.113 46.5965C994.786 46.1858 994.408 45.8685 993.979 45.6445C993.549 45.4112 993.083 45.2945 992.579 45.2945C992.084 45.2945 991.645 45.4112 991.263 45.6445C990.88 45.8685 990.577 46.1858 990.353 46.5965C990.138 46.9978 990.031 47.4645 990.031 47.9965ZM918.45 64.0345H920.27L920.746 66.8905V71.9585H918.926V66.6245L918.45 64.0345ZM923.896 63.8385C924.643 63.8385 925.278 63.9878 925.8 64.2865C926.323 64.5852 926.72 65.0145 926.99 65.5745C927.27 66.1252 927.41 66.7925 927.41 67.5765V71.9585H925.59V67.8705C925.59 67.0398 925.394 66.4145 925.002 65.9945C924.62 65.5652 924.055 65.3505 923.308 65.3505C922.795 65.3505 922.342 65.4672 921.95 65.7005C921.568 65.9245 921.269 66.2418 921.054 66.6525C920.849 67.0632 920.746 67.5438 920.746 68.0945L920.102 67.7445C920.186 66.9232 920.401 66.2232 920.746 65.6445C921.092 65.0658 921.535 64.6225 922.076 64.3145C922.618 63.9972 923.224 63.8385 923.896 63.8385ZM933.615 72.1545C932.653 72.1545 931.809 71.9818 931.081 71.6365C930.362 71.2818 929.797 70.7918 929.387 70.1665C928.985 69.5412 928.785 68.8178 928.785 67.9965C928.785 67.1658 928.985 66.4425 929.387 65.8265C929.797 65.2012 930.362 64.7158 931.081 64.3705C931.809 64.0158 932.653 63.8385 933.615 63.8385C934.576 63.8385 935.416 64.0158 936.135 64.3705C936.863 64.7158 937.427 65.2012 937.829 65.8265C938.239 66.4425 938.445 67.1658 938.445 67.9965C938.445 68.8178 938.239 69.5412 937.829 70.1665C937.427 70.7918 936.863 71.2818 936.135 71.6365C935.416 71.9818 934.576 72.1545 933.615 72.1545ZM933.615 70.7265C934.231 70.7265 934.758 70.6145 935.197 70.3905C935.645 70.1665 935.99 69.8538 936.233 69.4525C936.475 69.0418 936.597 68.5565 936.597 67.9965C936.597 67.4365 936.475 66.9558 936.233 66.5545C935.99 66.1438 935.645 65.8265 935.197 65.6025C934.758 65.3785 934.231 65.2665 933.615 65.2665C933.008 65.2665 932.481 65.3785 932.033 65.6025C931.585 65.8265 931.239 66.1438 930.997 66.5545C930.754 66.9558 930.633 67.4365 930.633 67.9965C930.633 68.5565 930.754 69.0418 930.997 69.4525C931.239 69.8538 931.585 70.1665 932.033 70.3905C932.481 70.6145 933.008 70.7265 933.615 70.7265ZM938.878 65.4345V64.6085L940.572 64.1745L941.328 61.9625H942.392V64.0345H946.074V65.4345H942.392V68.8645C942.392 69.5272 942.532 69.9938 942.812 70.2645C943.101 70.5258 943.568 70.6565 944.212 70.6565C944.622 70.6565 944.986 70.6145 945.304 70.5305C945.621 70.4372 945.924 70.3065 946.214 70.1385V71.6365C945.971 71.7578 945.626 71.8745 945.178 71.9865C944.739 72.0985 944.286 72.1545 943.82 72.1545C943.045 72.1545 942.42 72.0285 941.944 71.7765C941.468 71.5152 941.118 71.1605 940.894 70.7125C940.679 70.2552 940.572 69.7325 940.572 69.1445V65.4345H938.878ZM951.592 72.1545C950.668 72.1545 949.846 71.9818 949.128 71.6365C948.409 71.2818 947.844 70.7918 947.434 70.1665C947.023 69.5412 946.818 68.8132 946.818 67.9825C946.818 67.1612 947.009 66.4425 947.392 65.8265C947.784 65.2012 948.32 64.7158 949.002 64.3705C949.692 64.0158 950.481 63.8385 951.368 63.8385C952.254 63.8385 953.02 64.0392 953.664 64.4405C954.317 64.8325 954.821 65.3878 955.176 66.1065C955.53 66.8252 955.708 67.6698 955.708 68.6405H948.246V67.2545H954.798L953.888 67.7725C953.86 67.2498 953.734 66.8018 953.51 66.4285C953.295 66.0552 953.001 65.7705 952.628 65.5745C952.264 65.3692 951.83 65.2665 951.326 65.2665C950.794 65.2665 950.327 65.3738 949.926 65.5885C949.534 65.8032 949.226 66.1065 949.002 66.4985C948.778 66.8812 948.666 67.3385 948.666 67.8705C948.666 68.4585 948.796 68.9672 949.058 69.3965C949.328 69.8258 949.706 70.1572 950.192 70.3905C950.686 70.6145 951.27 70.7265 951.942 70.7265C952.548 70.7265 953.169 70.6332 953.804 70.4465C954.438 70.2505 954.998 69.9798 955.484 69.6345V70.9505C954.998 71.3238 954.406 71.6178 953.706 71.8325C953.015 72.0472 952.31 72.1545 951.592 72.1545ZM965.409 69.5505C965.409 70.0825 965.26 70.5445 964.961 70.9365C964.663 71.3285 964.21 71.6318 963.603 71.8465C962.997 72.0518 962.236 72.1545 961.321 72.1545C960.379 72.1545 959.562 72.0378 958.871 71.8045C958.181 71.5618 957.644 71.2258 957.261 70.7965C956.888 70.3578 956.687 69.8538 956.659 69.2845H958.507C958.563 69.5832 958.713 69.8492 958.955 70.0825C959.207 70.3065 959.534 70.4792 959.935 70.6005C960.346 70.7218 960.813 70.7825 961.335 70.7825C962.091 70.7825 962.661 70.6938 963.043 70.5165C963.426 70.3298 963.617 70.0498 963.617 69.6765C963.617 69.4245 963.487 69.2332 963.225 69.1025C962.973 68.9718 962.493 68.8738 961.783 68.8085L960.229 68.6685C959.389 68.5938 958.727 68.4445 958.241 68.2205C957.756 67.9872 957.411 67.7072 957.205 67.3805C957 67.0445 956.897 66.6898 956.897 66.3165C956.897 65.7752 957.065 65.3225 957.401 64.9585C957.737 64.5945 958.204 64.3192 958.801 64.1325C959.399 63.9365 960.094 63.8385 960.887 63.8385C961.709 63.8385 962.441 63.9552 963.085 64.1885C963.729 64.4125 964.243 64.7298 964.625 65.1405C965.008 65.5418 965.223 66.0085 965.269 66.5405H963.421C963.384 66.3258 963.272 66.1205 963.085 65.9245C962.908 65.7192 962.633 65.5512 962.259 65.4205C961.895 65.2805 961.405 65.2105 960.789 65.2105C960.136 65.2105 959.623 65.2945 959.249 65.4625C958.885 65.6305 958.703 65.8778 958.703 66.2045C958.703 66.4098 958.815 66.5872 959.039 66.7365C959.263 66.8765 959.679 66.9745 960.285 67.0305L962.287 67.2125C963.09 67.2872 963.715 67.4318 964.163 67.6465C964.621 67.8518 964.943 68.1178 965.129 68.4445C965.316 68.7712 965.409 69.1398 965.409 69.5505ZM975.392 62.3965C974.711 62.3965 974.202 62.5412 973.866 62.8305C973.539 63.1198 973.376 63.5912 973.376 64.2445V71.9585H971.556V64.4125C971.556 63.7312 971.682 63.1338 971.934 62.6205C972.195 62.1072 972.592 61.7058 973.124 61.4165C973.665 61.1272 974.351 60.9825 975.182 60.9825C975.583 60.9825 975.938 61.0152 976.246 61.0805C976.554 61.1458 976.857 61.2298 977.156 61.3325V62.7605C976.885 62.6298 976.605 62.5365 976.316 62.4805C976.027 62.4245 975.719 62.3965 975.392 62.3965ZM969.862 65.9805V64.5805H977.002V65.9805H969.862ZM982.122 72.1545C981.161 72.1545 980.316 71.9818 979.588 71.6365C978.87 71.2818 978.305 70.7918 977.894 70.1665C977.493 69.5412 977.292 68.8178 977.292 67.9965C977.292 67.1658 977.493 66.4425 977.894 65.8265C978.305 65.2012 978.87 64.7158 979.588 64.3705C980.316 64.0158 981.161 63.8385 982.122 63.8385C983.084 63.8385 983.924 64.0158 984.642 64.3705C985.37 64.7158 985.935 65.2012 986.336 65.8265C986.747 66.4425 986.952 67.1658 986.952 67.9965C986.952 68.8178 986.747 69.5412 986.336 70.1665C985.935 70.7918 985.37 71.2818 984.642 71.6365C983.924 71.9818 983.084 72.1545 982.122 72.1545ZM982.122 70.7265C982.738 70.7265 983.266 70.6145 983.704 70.3905C984.152 70.1665 984.498 69.8538 984.74 69.4525C984.983 69.0418 985.104 68.5565 985.104 67.9965C985.104 67.4365 984.983 66.9558 984.74 66.5545C984.498 66.1438 984.152 65.8265 983.704 65.6025C983.266 65.3785 982.738 65.2665 982.122 65.2665C981.516 65.2665 980.988 65.3785 980.54 65.6025C980.092 65.8265 979.747 66.1438 979.504 66.5545C979.262 66.9558 979.14 67.4365 979.14 67.9965C979.14 68.5565 979.262 69.0418 979.504 69.4525C979.747 69.8538 980.092 70.1665 980.54 70.3905C980.988 70.6145 981.516 70.7265 982.122 70.7265ZM988.054 64.0345H989.874L990.35 66.9185V71.9585H988.53V66.5685L988.054 64.0345ZM994.368 63.9785V65.5745C994.162 65.5185 993.938 65.4765 993.696 65.4485C993.453 65.4205 993.224 65.4065 993.01 65.4065C992.496 65.4065 992.039 65.5185 991.638 65.7425C991.236 65.9665 990.919 66.3025 990.686 66.7505C990.462 67.1892 990.35 67.7305 990.35 68.3745L989.93 67.8565C989.967 67.2965 990.06 66.7738 990.21 66.2885C990.368 65.7938 990.583 65.3645 990.854 65.0005C991.134 64.6365 991.474 64.3518 991.876 64.1465C992.277 63.9412 992.744 63.8385 993.276 63.8385C993.462 63.8385 993.654 63.8525 993.85 63.8805C994.046 63.8992 994.218 63.9318 994.368 63.9785ZM937.087 81.1785H938.907V86.7645L938.627 87.2825V88.7525L938.907 89.3405V91.9585H937.087V81.1785ZM938.179 87.9965C938.356 87.1565 938.65 86.4285 939.061 85.8125C939.472 85.1872 939.976 84.7018 940.573 84.3565C941.18 84.0112 941.852 83.8385 942.589 83.8385C943.364 83.8385 944.05 84.0158 944.647 84.3705C945.244 84.7158 945.711 85.2012 946.047 85.8265C946.383 86.4425 946.551 87.1658 946.551 87.9965C946.551 88.8178 946.383 89.5412 946.047 90.1665C945.711 90.7918 945.244 91.2818 944.647 91.6365C944.05 91.9818 943.364 92.1545 942.589 92.1545C941.852 92.1545 941.18 91.9818 940.573 91.6365C939.976 91.2912 939.472 90.8058 939.061 90.1805C938.65 89.5552 938.356 88.8272 938.179 87.9965ZM944.703 87.9965C944.703 87.4645 944.591 86.9978 944.367 86.5965C944.152 86.1858 943.854 85.8685 943.471 85.6445C943.088 85.4112 942.65 85.2945 942.155 85.2945C941.66 85.2945 941.194 85.4112 940.755 85.6445C940.326 85.8685 939.948 86.1858 939.621 86.5965C939.294 86.9978 939.028 87.4645 938.823 87.9965C939.028 88.5285 939.294 88.9998 939.621 89.4105C939.948 89.8118 940.326 90.1292 940.755 90.3625C941.194 90.5865 941.66 90.6985 942.155 90.6985C942.65 90.6985 943.088 90.5865 943.471 90.3625C943.854 90.1292 944.152 89.8118 944.367 89.4105C944.591 88.9998 944.703 88.5285 944.703 87.9965ZM951.384 92.1545C950.656 92.1545 950.035 92.0052 949.522 91.7065C949.018 91.4078 948.63 90.9785 948.36 90.4185C948.089 89.8585 947.954 89.1912 947.954 88.4165V84.0345H949.774V88.1365C949.774 88.9578 949.96 89.5832 950.334 90.0125C950.716 90.4325 951.262 90.6425 951.972 90.6425C952.485 90.6425 952.924 90.5305 953.288 90.3065C953.661 90.0825 953.95 89.7652 954.156 89.3545C954.361 88.9345 954.464 88.4492 954.464 87.8985L955.094 88.2485C955.019 89.0605 954.814 89.7605 954.478 90.3485C954.142 90.9272 953.708 91.3752 953.176 91.6925C952.644 92.0005 952.046 92.1545 951.384 92.1545ZM954.926 91.9585L954.464 89.1025V84.0345H956.284V89.3825L956.746 91.9585H954.926ZM958.32 83.9785L959.23 84.1465L960.14 83.9785V91.9585H958.32V83.9785ZM959.23 82.9845C958.884 82.9845 958.6 82.8912 958.376 82.7045C958.152 82.5085 958.04 82.2565 958.04 81.9485C958.04 81.6405 958.152 81.3932 958.376 81.2065C958.6 81.0105 958.884 80.9125 959.23 80.9125C959.584 80.9125 959.869 81.0105 960.084 81.2065C960.308 81.3932 960.42 81.6405 960.42 81.9485C960.42 82.2565 960.308 82.5085 960.084 82.7045C959.869 82.8912 959.584 82.9845 959.23 82.9845ZM962.066 81.1785H963.886V91.9585H962.066V81.1785ZM973.232 91.9585L972.924 88.9485L973.33 88.0105L972.938 86.9325L973.526 81.1785H975.402L974.688 87.8845L975.094 91.9585H973.232ZM973.764 87.9965C973.586 88.8272 973.292 89.5552 972.882 90.1805C972.471 90.8058 971.962 91.2912 971.356 91.6365C970.758 91.9818 970.091 92.1545 969.354 92.1545C968.579 92.1545 967.893 91.9818 967.296 91.6365C966.698 91.2818 966.232 90.7918 965.896 90.1665C965.56 89.5412 965.392 88.8178 965.392 87.9965C965.392 87.1658 965.56 86.4425 965.896 85.8265C966.232 85.2012 966.698 84.7158 967.296 84.3705C967.893 84.0158 968.579 83.8385 969.354 83.8385C970.091 83.8385 970.758 84.0112 971.356 84.3565C971.962 84.7018 972.471 85.1872 972.882 85.8125C973.302 86.4285 973.596 87.1565 973.764 87.9965ZM967.24 87.9965C967.24 88.5285 967.347 88.9998 967.562 89.4105C967.786 89.8118 968.089 90.1292 968.472 90.3625C968.854 90.5865 969.293 90.6985 969.788 90.6985C970.292 90.6985 970.758 90.5865 971.188 90.3625C971.617 90.1292 971.995 89.8118 972.322 89.4105C972.658 88.9998 972.924 88.5285 973.12 87.9965C972.924 87.4645 972.658 86.9978 972.322 86.5965C971.995 86.1858 971.617 85.8685 971.188 85.6445C970.758 85.4112 970.292 85.2945 969.788 85.2945C969.293 85.2945 968.854 85.4112 968.472 85.6445C968.089 85.8685 967.786 86.1858 967.562 86.5965C967.347 86.9978 967.24 87.4645 967.24 87.9965Z" fill="#FF5C02"/>
</svg>
