<svg width="16" height="16" viewBox="0 0 16 16" fill="none" xmlns="http://www.w3.org/2000/svg">
<g clip-path="url(#clip0_3_41)">
<path d="M8 0.250008C3.72813 0.250008 0.25 3.72813 0.25 8.00001C0.25 12.2719 3.72813 15.75 8 15.75C12.2719 15.75 15.75 12.2719 15.75 8.00001C15.75 3.72813 12.2719 0.250008 8 0.250008ZM13.125 3.82501C14.0469 4.95001 14.6062 6.38751 14.6187 7.95001C14.4 7.90313 12.2125 7.45938 10.0094 7.73751C9.82812 7.30001 9.65938 6.91251 9.42813 6.43751C11.875 5.43751 12.9844 4.01563 13.125 3.82813V3.82501ZM12.3875 3.05938C12.2688 3.22813 11.2719 4.56876 8.91875 5.45001C7.83437 3.45626 6.63125 1.81876 6.45 1.57501C8.55 1.06876 10.7625 1.61563 12.3906 3.05938H12.3875ZM5.18437 2.01876C5.35938 2.25938 6.54062 3.89688 7.6375 5.84688C4.54062 6.66876 1.8125 6.65626 1.51875 6.65313C1.95 4.60001 3.33437 2.89376 5.18437 2.01876ZM1.38125 8.00938C1.38125 7.94063 1.38125 7.87501 1.38437 7.80626C1.675 7.81251 4.88125 7.85313 8.1875 6.86563C8.37813 7.23751 8.55938 7.61251 8.725 7.98751C6.33125 8.66251 4.15625 10.5969 3.08437 12.4344C2.025 11.2625 1.38125 9.70938 1.38125 8.00938ZM3.9375 13.2313C4.62813 11.8188 6.50625 9.99376 9.175 9.08126C10.1031 11.4969 10.4875 13.5219 10.5875 14.1C8.45937 15.0063 5.9 14.7594 3.9375 13.2281V13.2313ZM11.7 13.4969C11.6312 13.0938 11.2812 11.1563 10.4125 8.77813C12.4875 8.44688 14.3094 8.99063 14.5344 9.06251C14.2406 10.9031 13.1812 12.4938 11.6969 13.5L11.7 13.4969Z" fill="#B11030"/>
</g>
<defs>
<clipPath id="clip0_3_41">
<rect width="16" height="16" fill="white"/>
</clipPath>
</defs>
</svg>
