<svg width="64" height="64" viewBox="0 0 64 64" fill="none" xmlns="http://www.w3.org/2000/svg">
<g clip-path="url(#clip0_4_102)">
<path d="M35.9987 21.7901C37.0928 20.2302 38.0567 18.5619 39.2058 17.0362C41.9324 13.4202 47.0122 7.94205 51.9965 8.23578C53.5972 8.32988 55.1081 9.28522 55.5799 10.8337C57.0879 15.7644 50.6332 21.6903 47.0412 24.3281C45.4376 25.5059 43.6865 26.4698 42.0742 27.6333C43.3854 27.4422 44.6503 27.0544 45.9557 26.8234C50.1962 26.0762 55.3628 25.6542 59.4788 27.1C65.2417 29.1247 65.6701 34.0896 59.7682 36.2968C54.1008 38.4157 47.7966 37.024 42.0771 35.9061C43.5128 36.9043 45.0411 37.7626 46.4652 38.7835C50.1122 41.39 55.4352 46.1182 55.8086 50.8236C55.988 53.0593 54.6131 55.0612 52.2802 55.2951C47.073 55.8198 41.6719 49.834 38.9221 46.0726C37.8946 44.6667 37.0234 43.1581 36.0016 41.7493C37.2173 47.1591 38.5661 53.6354 36.6876 59.0394C34.7367 64.6545 29.7958 65.2191 27.4947 59.4672C25.3296 54.0574 26.8087 47.0935 28.0389 41.6068L25.9867 44.7893C23.4772 48.4281 19.422 53.2561 15.1266 54.7647C8.99025 56.9177 6.67177 52.2865 9.34628 47.2161C12.0237 42.1372 17.445 38.8548 22.1052 35.7636C16.4754 37.1124 9.23918 38.467 3.72808 36.1172C-1.55725 33.8643 -1.02756 29.2274 4.12173 27.2397C9.63573 25.1152 16.3712 26.4555 21.9604 27.6333L17.1382 24.4707C13.4217 21.9555 6.35917 15.2311 8.66318 10.3261C9.76598 7.97912 12.5099 7.94775 14.7184 8.60365C18.901 9.8413 22.9648 14.4668 25.4078 17.8917L28.0389 21.9298C26.7595 16.2064 25.0112 7.97627 28.2125 2.63782C29.7235 0.116892 32.3893 -1.08654 34.7743 1.25188C39.2376 5.62644 37.3591 16.349 36.0016 21.7901H35.9987Z" fill="#B11030"/>
</g>
<defs>
<clipPath id="clip0_4_102">
<rect width="64" height="64" fill="white"/>
</clipPath>
</defs>
</svg>
