<svg width="16" height="20" viewBox="0 0 16 20" fill="none" xmlns="http://www.w3.org/2000/svg">
<g clip-path="url(#clip0_3_39)">
<path d="M3.58214 16.8571H0.264286V6.175H3.58214V16.8571ZM1.92143 4.71786C0.860714 4.71786 0 3.83929 0 2.77858C0 2.26898 0.202436 1.78026 0.562773 1.41992C0.923111 1.05958 1.41183 0.857147 1.92143 0.857147C2.43102 0.857147 2.91975 1.05958 3.28008 1.41992C3.64042 1.78026 3.84286 2.26898 3.84286 2.77858C3.84286 3.83929 2.98214 4.71786 1.92143 4.71786ZM15.9964 16.8571H12.6857V11.6571C12.6857 10.4179 12.6607 8.82858 10.9607 8.82858C9.23571 8.82858 8.97143 10.175 8.97143 11.5679V16.8571H5.65714V6.175H8.83929V7.63215H8.88571C9.32857 6.79286 10.4107 5.90715 12.025 5.90715C15.3821 5.90715 16 8.11786 16 10.9893V16.8571H15.9964Z" fill="#B11030"/>
</g>
<defs>
<clipPath id="clip0_3_39">
<rect width="16" height="18.2857" fill="white" transform="translate(0 0.857147)"/>
</clipPath>
</defs>
</svg>
