<svg width="36" height="39" viewBox="0 0 36 39" fill="none" xmlns="http://www.w3.org/2000/svg">
<path d="M17.9604 30C17.5978 30 17.0111 29.5733 16.2004 28.72C15.4111 27.8667 14.4404 26.6507 13.2884 25.072C12.1578 23.472 10.8884 21.5733 9.48043 19.376L11.2724 18.8C13.0858 21.488 14.6218 23.6213 15.8804 25.2C17.1604 26.7573 18.2804 27.888 19.2404 28.592C20.2218 29.2747 21.1604 29.616 22.0564 29.616C22.1204 29.616 22.1524 29.68 22.1524 29.808C22.1524 29.936 22.1204 30 22.0564 30C20.9898 30 20.1151 30 19.4324 30C18.7711 30 18.2804 30 17.9604 30ZM9.25643 9.904C11.0058 9.904 12.3391 10.2667 13.2564 10.992C14.1951 11.696 14.6644 12.6667 14.6644 13.904C14.6644 14.7147 14.4831 15.4827 14.1204 16.208C13.7578 16.912 13.2671 17.5413 12.6484 18.096C12.0298 18.6293 11.3044 19.056 10.4724 19.376C9.66177 19.696 8.80843 19.856 7.91243 19.856C7.6991 19.856 7.45377 19.856 7.17643 19.856C6.92043 19.8347 6.68577 19.8133 6.47243 19.792V27.408C6.47243 28.0267 6.52577 28.496 6.63243 28.816C6.76043 29.136 7.01643 29.3493 7.40043 29.456C7.80577 29.5627 8.4031 29.616 9.19243 29.616C9.25643 29.616 9.28843 29.68 9.28843 29.808C9.28843 29.936 9.25643 30 9.19243 30C8.68043 30 8.10443 29.9893 7.46443 29.968C6.84577 29.9467 6.1631 29.936 5.41643 29.936C4.71243 29.936 4.02977 29.9467 3.36843 29.968C2.72843 29.9893 2.14177 30 1.60843 30C1.56577 30 1.54443 29.936 1.54443 29.808C1.54443 29.68 1.56577 29.616 1.60843 29.616C2.39777 29.616 2.98443 29.5627 3.36843 29.456C3.77377 29.3493 4.0511 29.136 4.20043 28.816C4.34977 28.496 4.42443 28.0267 4.42443 27.408V12.592C4.42443 11.9733 4.34977 11.5147 4.20043 11.216C4.07243 10.896 3.81643 10.6827 3.43243 10.576C3.04843 10.448 2.46177 10.384 1.67243 10.384C1.60843 10.384 1.57643 10.32 1.57643 10.192C1.57643 10.064 1.60843 10 1.67243 10C2.18443 10 2.76043 10.0213 3.40043 10.064C4.04043 10.0853 4.71243 10.096 5.41643 10.096C5.9711 10.096 6.62177 10.064 7.36843 10C8.1151 9.936 8.74443 9.904 9.25643 9.904ZM12.4884 15.024C12.4884 13.8507 12.3071 12.9333 11.9444 12.272C11.6031 11.5893 11.1444 11.1093 10.5684 10.832C9.99243 10.5333 9.3311 10.384 8.58443 10.384C8.07243 10.384 7.65643 10.4267 7.33643 10.512C7.01643 10.5973 6.79243 10.8 6.66443 11.12C6.53643 11.44 6.47243 11.952 6.47243 12.656V18.992C6.7711 19.0347 7.0911 19.0667 7.43243 19.088C7.77377 19.1093 8.0831 19.12 8.36043 19.12C9.83243 19.12 10.8884 18.8107 11.5284 18.192C12.1684 17.552 12.4884 16.496 12.4884 15.024Z" fill="#B11030"/>
<path d="M27.5237 19.056L27.8757 18.704C29.1344 18.704 30.233 18.9387 31.1717 19.408C32.1317 19.8773 32.8677 20.5173 33.3797 21.328C33.913 22.1387 34.1797 23.0667 34.1797 24.112C34.1797 25.2427 33.9024 26.2667 33.3477 27.184C32.793 28.1013 32.025 28.8267 31.0437 29.36C30.0837 29.872 29.0063 30.128 27.8117 30.128C27.129 30.128 26.3503 30.096 25.4757 30.032C24.6223 29.968 23.833 29.936 23.1077 29.936C22.4037 29.936 21.721 29.9467 21.0597 29.968C20.4197 29.9893 19.833 30 19.2997 30C19.257 30 19.2357 29.936 19.2357 29.808C19.2357 29.68 19.257 29.616 19.2997 29.616C20.0677 29.616 20.6544 29.5627 21.0597 29.456C21.465 29.3493 21.7423 29.136 21.8917 28.816C22.041 28.496 22.1157 28.0267 22.1157 27.408V12.592C22.1157 11.9733 22.041 11.5147 21.8917 11.216C21.7637 10.896 21.497 10.6827 21.0917 10.576C20.7077 10.448 20.1317 10.384 19.3637 10.384C19.2997 10.384 19.2677 10.32 19.2677 10.192C19.2677 10.064 19.2997 10 19.3637 10C19.8757 10 20.4517 10.0213 21.0917 10.064C21.7317 10.0853 22.4037 10.096 23.1077 10.096C23.6623 10.096 24.3023 10.064 25.0277 10C25.753 9.936 26.3717 9.904 26.8837 9.904C28.1424 9.904 29.1664 10.096 29.9557 10.48C30.745 10.8427 31.321 11.344 31.6837 11.984C32.0677 12.624 32.2597 13.3387 32.2597 14.128C32.2597 15.344 31.8117 16.3787 30.9157 17.232C30.041 18.0853 28.9104 18.6933 27.5237 19.056ZM26.1797 10.384C25.689 10.384 25.2943 10.4267 24.9957 10.512C24.697 10.5973 24.4837 10.8 24.3557 11.12C24.2277 11.4187 24.1637 11.9307 24.1637 12.656V18.928L23.1397 18.672C23.8223 18.7147 24.3877 18.7467 24.8357 18.768C25.2837 18.768 25.5397 18.768 25.6037 18.768C27.2463 18.768 28.4197 18.352 29.1237 17.52C29.8277 16.6667 30.1797 15.6213 30.1797 14.384C30.1797 13.6373 30.041 12.9653 29.7637 12.368C29.5077 11.7493 29.0917 11.2693 28.5157 10.928C27.9397 10.5653 27.161 10.384 26.1797 10.384ZM27.3317 29.552C28.9317 29.552 30.0944 29.1467 30.8197 28.336C31.5664 27.504 31.9397 26.3627 31.9397 24.912C31.9397 23.312 31.4704 22 30.5317 20.976C29.593 19.952 28.281 19.44 26.5957 19.44C26.0624 19.4187 25.5077 19.4187 24.9317 19.44C24.377 19.4613 23.8117 19.5147 23.2357 19.6L24.1637 19.248V27.408C24.1637 27.92 24.2383 28.336 24.3877 28.656C24.537 28.976 24.8357 29.2107 25.2837 29.36C25.753 29.488 26.4357 29.552 27.3317 29.552Z" fill="#B11030"/>
</svg>
