<svg width="86" height="72" viewBox="0 0 86 72" fill="none" xmlns="http://www.w3.org/2000/svg">
<path d="M44.5013 60.9998C43.5946 60.9998 42.128 59.9331 40.1013 57.7998C38.128 55.6664 35.7013 52.6264 32.8213 48.6798C29.9946 44.6798 26.8213 39.9331 23.3013 34.4398L27.7813 32.9998C32.3146 39.7198 36.1546 45.0531 39.3013 48.9998C42.5013 52.8931 45.3013 55.7198 47.7013 57.4798C50.1546 59.1864 52.5013 60.0398 54.7413 60.0398C54.9013 60.0398 54.9813 60.1998 54.9813 60.5198C54.9813 60.8398 54.9013 60.9998 54.7413 60.9998C52.0746 60.9998 49.888 60.9998 48.1813 60.9998C46.528 60.9998 45.3013 60.9998 44.5013 60.9998ZM22.7413 10.7598C27.1146 10.7598 30.448 11.6664 32.7413 13.4798C35.088 15.2398 36.2613 17.6664 36.2613 20.7598C36.2613 22.7864 35.808 24.7064 34.9013 26.5198C33.9946 28.2798 32.768 29.8531 31.2213 31.2398C29.6746 32.5731 27.8613 33.6398 25.7813 34.4398C23.7546 35.2398 21.6213 35.6398 19.3813 35.6398C18.848 35.6398 18.2346 35.6398 17.5413 35.6398C16.9013 35.5864 16.3146 35.5331 15.7813 35.4798V54.5198C15.7813 56.0664 15.9146 57.2398 16.1813 58.0398C16.5013 58.8398 17.1413 59.3731 18.1013 59.6398C19.1146 59.9064 20.608 60.0398 22.5813 60.0398C22.7413 60.0398 22.8213 60.1998 22.8213 60.5198C22.8213 60.8398 22.7413 60.9998 22.5813 60.9998C21.3013 60.9998 19.8613 60.9731 18.2613 60.9198C16.7146 60.8664 15.008 60.8398 13.1413 60.8398C11.3813 60.8398 9.67464 60.8664 8.0213 60.9198C6.4213 60.9731 4.95464 60.9998 3.6213 60.9998C3.51464 60.9998 3.4613 60.8398 3.4613 60.5198C3.4613 60.1998 3.51464 60.0398 3.6213 60.0398C5.59464 60.0398 7.0613 59.9064 8.0213 59.6398C9.03464 59.3731 9.72797 58.8398 10.1013 58.0398C10.4746 57.2398 10.6613 56.0664 10.6613 54.5198V17.4798C10.6613 15.9331 10.4746 14.7864 10.1013 14.0398C9.7813 13.2398 9.1413 12.7064 8.1813 12.4398C7.2213 12.1198 5.75464 11.9598 3.7813 11.9598C3.6213 11.9598 3.5413 11.7998 3.5413 11.4798C3.5413 11.1598 3.6213 10.9998 3.7813 10.9998C5.0613 10.9998 6.5013 11.0531 8.1013 11.1598C9.7013 11.2131 11.3813 11.2398 13.1413 11.2398C14.528 11.2398 16.1546 11.1598 18.0213 10.9998C19.888 10.8398 21.4613 10.7598 22.7413 10.7598ZM30.8213 23.5598C30.8213 20.6264 30.368 18.3331 29.4613 16.6798C28.608 14.9731 27.4613 13.7731 26.0213 13.0798C24.5813 12.3331 22.928 11.9598 21.0613 11.9598C19.7813 11.9598 18.7413 12.0664 17.9413 12.2798C17.1413 12.4931 16.5813 12.9998 16.2613 13.7998C15.9413 14.5998 15.7813 15.8798 15.7813 17.6398V33.4798C16.528 33.5864 17.328 33.6664 18.1813 33.7198C19.0346 33.7731 19.808 33.7998 20.5013 33.7998C24.1813 33.7998 26.8213 33.0264 28.4213 31.4798C30.0213 29.8798 30.8213 27.2398 30.8213 23.5598Z" fill="#B11030"/>
<path d="M65.2094 33.6398L66.0894 32.7598C69.2361 32.7598 71.9828 33.3464 74.3294 34.5198C76.7294 35.6931 78.5694 37.2931 79.8494 39.3198C81.1828 41.3464 81.8494 43.6664 81.8494 46.2798C81.8494 49.1064 81.1561 51.6664 79.7694 53.9598C78.3828 56.2531 76.4628 58.0664 74.0094 59.3998C71.6094 60.6798 68.9161 61.3198 65.9294 61.3198C64.2228 61.3198 62.2761 61.2398 60.0894 61.0798C57.9561 60.9198 55.9828 60.8398 54.1694 60.8398C52.4094 60.8398 50.7028 60.8664 49.0494 60.9198C47.4494 60.9731 45.9828 60.9998 44.6494 60.9998C44.5428 60.9998 44.4894 60.8398 44.4894 60.5198C44.4894 60.1998 44.5428 60.0398 44.6494 60.0398C46.5694 60.0398 48.0361 59.9064 49.0494 59.6398C50.0628 59.3731 50.7561 58.8398 51.1294 58.0398C51.5028 57.2398 51.6894 56.0664 51.6894 54.5198V17.4798C51.6894 15.9331 51.5028 14.7864 51.1294 14.0398C50.8094 13.2398 50.1428 12.7064 49.1294 12.4398C48.1694 12.1198 46.7294 11.9598 44.8094 11.9598C44.6494 11.9598 44.5694 11.7998 44.5694 11.4798C44.5694 11.1598 44.6494 10.9998 44.8094 10.9998C46.0894 10.9998 47.5294 11.0531 49.1294 11.1598C50.7294 11.2131 52.4094 11.2398 54.1694 11.2398C55.5561 11.2398 57.1561 11.1598 58.9694 10.9998C60.7828 10.8398 62.3294 10.7598 63.6094 10.7598C66.7561 10.7598 69.3161 11.2398 71.2894 12.1998C73.2628 13.1064 74.7028 14.3598 75.6094 15.9598C76.5694 17.5598 77.0494 19.3464 77.0494 21.3198C77.0494 24.3598 75.9294 26.9464 73.6894 29.0798C71.5028 31.2131 68.6761 32.7331 65.2094 33.6398ZM61.8494 11.9598C60.6228 11.9598 59.6361 12.0664 58.8894 12.2798C58.1428 12.4931 57.6094 12.9998 57.2894 13.7998C56.9694 14.5464 56.8094 15.8264 56.8094 17.6398V33.3198L54.2494 32.6798C55.9561 32.7864 57.3694 32.8664 58.4894 32.9198C59.6094 32.9198 60.2494 32.9198 60.4094 32.9198C64.5161 32.9198 67.4494 31.8798 69.2094 29.7998C70.9694 27.6664 71.8494 25.0531 71.8494 21.9598C71.8494 20.0931 71.5028 18.4131 70.8094 16.9198C70.1694 15.3731 69.1294 14.1731 67.6894 13.3198C66.2494 12.4131 64.3028 11.9598 61.8494 11.9598ZM64.7294 59.8798C68.7294 59.8798 71.6361 58.8664 73.4494 56.8398C75.3161 54.7598 76.2494 51.9064 76.2494 48.2798C76.2494 44.2798 75.0761 40.9998 72.7294 38.4398C70.3828 35.8798 67.1028 34.5998 62.8894 34.5998C61.5561 34.5464 60.1694 34.5464 58.7294 34.5998C57.3428 34.6531 55.9294 34.7864 54.4894 34.9998L56.8094 34.1198V54.5198C56.8094 55.7998 56.9961 56.8398 57.3694 57.6398C57.7428 58.4398 58.4894 59.0264 59.6094 59.3998C60.7828 59.7198 62.4894 59.8798 64.7294 59.8798Z" fill="#B11030"/>
</svg>
