<svg width="16" height="20" viewBox="0 0 16 20" fill="none" xmlns="http://www.w3.org/2000/svg">
<g clip-path="url(#clip0_3_43)">
<path d="M8.00356 5.89286C5.73214 5.89286 3.89999 7.725 3.89999 9.99643C3.89999 12.2679 5.73214 14.1 8.00356 14.1C10.275 14.1 12.1071 12.2679 12.1071 9.99643C12.1071 7.725 10.275 5.89286 8.00356 5.89286ZM8.00356 12.6643C6.53571 12.6643 5.33571 11.4679 5.33571 9.99643C5.33571 8.525 6.53214 7.32857 8.00356 7.32857C9.47499 7.32857 10.6714 8.525 10.6714 9.99643C10.6714 11.4679 9.47142 12.6643 8.00356 12.6643ZM13.2321 5.725C13.2321 6.25714 12.8036 6.68215 12.275 6.68215C11.7429 6.68215 11.3179 6.25357 11.3179 5.725C11.3179 5.19643 11.7464 4.76786 12.275 4.76786C12.8036 4.76786 13.2321 5.19643 13.2321 5.725ZM15.95 6.69643C15.8893 5.41429 15.5964 4.27857 14.6571 3.34286C13.7214 2.40714 12.5857 2.11429 11.3036 2.05C9.98214 1.975 6.02142 1.975 4.69999 2.05C3.42142 2.11072 2.28571 2.40357 1.34642 3.33929C0.407136 4.275 0.11785 5.41072 0.0535644 6.69286C-0.0214355 8.01429 -0.0214355 11.975 0.0535644 13.2964C0.114279 14.5786 0.407136 15.7143 1.34642 16.65C2.28571 17.5857 3.41785 17.8786 4.69999 17.9429C6.02142 18.0179 9.98214 18.0179 11.3036 17.9429C12.5857 17.8821 13.7214 17.5893 14.6571 16.65C15.5928 15.7143 15.8857 14.5786 15.95 13.2964C16.025 11.975 16.025 8.01786 15.95 6.69643ZM14.2428 14.7143C13.9643 15.4143 13.425 15.9536 12.7214 16.2357C11.6679 16.6536 9.16785 16.5571 8.00356 16.5571C6.83928 16.5571 4.33571 16.65 3.28571 16.2357C2.58571 15.9571 2.04642 15.4179 1.76428 14.7143C1.34642 13.6607 1.44285 11.1607 1.44285 9.99643C1.44285 8.83214 1.34999 6.32857 1.76428 5.27857C2.04285 4.57857 2.58214 4.03929 3.28571 3.75714C4.33928 3.33929 6.83928 3.43572 8.00356 3.43572C9.16785 3.43572 11.6714 3.34286 12.7214 3.75714C13.4214 4.03572 13.9607 4.575 14.2428 5.27857C14.6607 6.33214 14.5643 8.83214 14.5643 9.99643C14.5643 11.1607 14.6607 13.6643 14.2428 14.7143Z" fill="#B11030"/>
</g>
<defs>
<clipPath id="clip0_3_43">
<rect width="16" height="18.2857" fill="white" transform="translate(0 0.857147)"/>
</clipPath>
</defs>
</svg>
